<mxfile host="app.diagrams.net" agent="Mozilla/5.0 (Windows NT 10.0; Win64; x64) AppleWebKit/537.36 (KHTML, like Gecko) Chrome/130.0.0.0 Safari/537.36" version="24.8.3" pages="2">
  <diagram id="Ht1M8jgEwFfnCIfOTk4-" name="Page-1">
    <mxGraphModel dx="2074" dy="1098" grid="1" gridSize="10" guides="1" tooltips="1" connect="1" arrows="1" fold="1" page="1" pageScale="1" pageWidth="1169" pageHeight="827" math="0" shadow="0">
      <root>
        <mxCell id="0" />
        <mxCell id="1" parent="0" />
        <mxCell id="D712IfISyNJ3r9-J-6BS-42" value="" style="rounded=0;whiteSpace=wrap;html=1;fillColor=none;" vertex="1" parent="1">
          <mxGeometry x="975" y="1410" width="288.5" height="190" as="geometry" />
        </mxCell>
        <mxCell id="-QjtrjUzRDEMRZ5MF8oH-14" value="Amazon SageMaker" style="whiteSpace=wrap;html=1;fillColor=none;fontSize=14;fontColor=#000000;dashed=0;fontStyle=0;align=center;verticalAlign=top;strokeColor=#D86613;gradientColor=none;spacingLeft=0;labelPosition=center;verticalLabelPosition=bottom;container=1;pointerEvents=0;collapsible=0;recursiveResize=0;" parent="1" vertex="1">
          <mxGeometry x="872.5" y="174.5" width="232" height="160" as="geometry" />
        </mxCell>
        <mxCell id="SCVMTBWpLvtzJIhz15lM-34" value="" style="whiteSpace=wrap;html=1;fillColor=none;fontSize=14;fontColor=#000000;dashed=0;fontStyle=0;align=center;verticalAlign=top;strokeColor=#CCCCCC;gradientColor=none;spacingLeft=0;labelPosition=center;verticalLabelPosition=bottom;" parent="1" vertex="1">
          <mxGeometry x="882.5" y="257.5" width="210" height="70" as="geometry" />
        </mxCell>
        <mxCell id="-QjtrjUzRDEMRZ5MF8oH-1" value="" style="outlineConnect=0;fontColor=#232F3E;gradientColor=none;fillColor=#277116;strokeColor=none;dashed=0;verticalLabelPosition=bottom;verticalAlign=top;align=center;html=1;fontSize=12;fontStyle=0;aspect=fixed;pointerEvents=1;shape=mxgraph.aws4.door_lock;" parent="1" vertex="1">
          <mxGeometry x="64.5" y="260.5" width="78" height="78" as="geometry" />
        </mxCell>
        <mxCell id="-QjtrjUzRDEMRZ5MF8oH-2" value="" style="outlineConnect=0;fontColor=#232F3E;gradientColor=none;fillColor=#277116;strokeColor=none;dashed=0;verticalLabelPosition=bottom;verticalAlign=top;align=center;html=1;fontSize=12;fontStyle=0;aspect=fixed;pointerEvents=1;shape=mxgraph.aws4.car;" parent="1" vertex="1">
          <mxGeometry x="64.5" y="356" width="78" height="78" as="geometry" />
        </mxCell>
        <mxCell id="-QjtrjUzRDEMRZ5MF8oH-3" value="" style="outlineConnect=0;fontColor=#232F3E;gradientColor=none;fillColor=#277116;strokeColor=none;dashed=0;verticalLabelPosition=bottom;verticalAlign=top;align=center;html=1;fontSize=12;fontStyle=0;aspect=fixed;pointerEvents=1;shape=mxgraph.aws4.camera;" parent="1" vertex="1">
          <mxGeometry x="64.5" y="451.5" width="78" height="78" as="geometry" />
        </mxCell>
        <mxCell id="-QjtrjUzRDEMRZ5MF8oH-4" value="" style="outlineConnect=0;fontColor=#232F3E;gradientColor=none;fillColor=#277116;strokeColor=none;dashed=0;verticalLabelPosition=bottom;verticalAlign=top;align=center;html=1;fontSize=12;fontStyle=0;aspect=fixed;pointerEvents=1;shape=mxgraph.aws4.utility;" parent="1" vertex="1">
          <mxGeometry x="165.5" y="306.5" width="78" height="78" as="geometry" />
        </mxCell>
        <mxCell id="-QjtrjUzRDEMRZ5MF8oH-5" value="" style="outlineConnect=0;fontColor=#232F3E;gradientColor=none;fillColor=#277116;strokeColor=none;dashed=0;verticalLabelPosition=bottom;verticalAlign=top;align=center;html=1;fontSize=12;fontStyle=0;aspect=fixed;pointerEvents=1;shape=mxgraph.aws4.coffee_pot;" parent="1" vertex="1">
          <mxGeometry x="166.5" y="410.5" width="78" height="78" as="geometry" />
        </mxCell>
        <mxCell id="-QjtrjUzRDEMRZ5MF8oH-6" value="" style="outlineConnect=0;fontColor=#232F3E;gradientColor=none;fillColor=#277116;strokeColor=none;dashed=0;verticalLabelPosition=bottom;verticalAlign=top;align=center;html=1;fontSize=12;fontStyle=0;aspect=fixed;pointerEvents=1;shape=mxgraph.aws4.lightbulb;" parent="1" vertex="1">
          <mxGeometry x="263.5" y="260.5" width="78" height="78" as="geometry" />
        </mxCell>
        <mxCell id="-QjtrjUzRDEMRZ5MF8oH-7" value="" style="outlineConnect=0;fontColor=#232F3E;gradientColor=none;fillColor=#277116;strokeColor=none;dashed=0;verticalLabelPosition=bottom;verticalAlign=top;align=center;html=1;fontSize=12;fontStyle=0;aspect=fixed;pointerEvents=1;shape=mxgraph.aws4.house;" parent="1" vertex="1">
          <mxGeometry x="261.5" y="356" width="78" height="78" as="geometry" />
        </mxCell>
        <mxCell id="-QjtrjUzRDEMRZ5MF8oH-8" value="" style="outlineConnect=0;fontColor=#232F3E;gradientColor=none;fillColor=#277116;strokeColor=none;dashed=0;verticalLabelPosition=bottom;verticalAlign=top;align=center;html=1;fontSize=12;fontStyle=0;aspect=fixed;pointerEvents=1;shape=mxgraph.aws4.thermostat;" parent="1" vertex="1">
          <mxGeometry x="261.5" y="451.5" width="78" height="78" as="geometry" />
        </mxCell>
        <mxCell id="-QjtrjUzRDEMRZ5MF8oH-9" value="1" style="rounded=1;whiteSpace=wrap;html=1;fillColor=#007CBD;strokeColor=none;fontColor=#FFFFFF;fontStyle=1;fontSize=22;" parent="1" vertex="1">
          <mxGeometry x="186.5" y="1376" width="40" height="38" as="geometry" />
        </mxCell>
        <mxCell id="-QjtrjUzRDEMRZ5MF8oH-10" value="ML Model Executable" style="outlineConnect=0;fontColor=#232F3E;gradientColor=none;fillColor=#116D5B;strokeColor=none;dashed=0;verticalLabelPosition=bottom;verticalAlign=top;align=center;html=1;fontSize=12;fontStyle=0;aspect=fixed;pointerEvents=1;shape=mxgraph.aws4.sagemaker_model;" parent="1" vertex="1">
          <mxGeometry x="473.5" y="244.5" width="78" height="78" as="geometry" />
        </mxCell>
        <mxCell id="-QjtrjUzRDEMRZ5MF8oH-11" value="AWS Lambda Function" style="outlineConnect=0;fontColor=#232F3E;gradientColor=none;fillColor=#277116;strokeColor=none;dashed=0;verticalLabelPosition=bottom;verticalAlign=top;align=center;html=1;fontSize=12;fontStyle=0;aspect=fixed;pointerEvents=1;shape=mxgraph.aws4.lambda_function;" parent="1" vertex="1">
          <mxGeometry x="473.5" y="349.5" width="78" height="78" as="geometry" />
        </mxCell>
        <mxCell id="-QjtrjUzRDEMRZ5MF8oH-12" value="AWS IoT Greengrass Core" style="outlineConnect=0;fontColor=#232F3E;gradientColor=#60A337;gradientDirection=north;fillColor=#277116;strokeColor=#ffffff;dashed=0;verticalLabelPosition=bottom;verticalAlign=top;align=center;html=1;fontSize=12;fontStyle=0;aspect=fixed;shape=mxgraph.aws4.resourceIcon;resIcon=mxgraph.aws4.greengrass;" parent="1" vertex="1">
          <mxGeometry x="473.5" y="457.5" width="78" height="78" as="geometry" />
        </mxCell>
        <mxCell id="-QjtrjUzRDEMRZ5MF8oH-16" value="AWS IoT Core" style="outlineConnect=0;fontColor=#232F3E;gradientColor=#60A337;gradientDirection=north;fillColor=#277116;strokeColor=#ffffff;dashed=0;verticalLabelPosition=bottom;verticalAlign=top;align=center;html=1;fontSize=12;fontStyle=0;aspect=fixed;shape=mxgraph.aws4.resourceIcon;resIcon=mxgraph.aws4.internet_of_things;" parent="1" vertex="1">
          <mxGeometry x="745.5" y="451.5" width="78" height="78" as="geometry" />
        </mxCell>
        <mxCell id="-QjtrjUzRDEMRZ5MF8oH-17" value="AWS IoT Analytics" style="outlineConnect=0;fontColor=#232F3E;gradientColor=#60A337;gradientDirection=north;fillColor=#277116;strokeColor=#ffffff;dashed=0;verticalLabelPosition=bottom;verticalAlign=top;align=center;html=1;fontSize=12;fontStyle=0;aspect=fixed;shape=mxgraph.aws4.resourceIcon;resIcon=mxgraph.aws4.iot_analytics;" parent="1" vertex="1">
          <mxGeometry x="949.5" y="451.5" width="78" height="78" as="geometry" />
        </mxCell>
        <mxCell id="-QjtrjUzRDEMRZ5MF8oH-18" value="ML Model Executable" style="outlineConnect=0;fontColor=#232F3E;gradientColor=none;fillColor=#116D5B;strokeColor=none;dashed=0;verticalLabelPosition=bottom;verticalAlign=top;align=center;html=1;fontSize=12;fontStyle=0;aspect=fixed;pointerEvents=1;shape=mxgraph.aws4.sagemaker_model;" parent="1" vertex="1">
          <mxGeometry x="136.5" y="691.5" width="78" height="78" as="geometry" />
        </mxCell>
        <mxCell id="-QjtrjUzRDEMRZ5MF8oH-19" value="AWS IoT Greengrass Core" style="outlineConnect=0;fontColor=#232F3E;gradientColor=#60A337;gradientDirection=north;fillColor=#277116;strokeColor=#ffffff;dashed=0;verticalLabelPosition=bottom;verticalAlign=top;align=center;html=1;fontSize=12;fontStyle=0;aspect=fixed;shape=mxgraph.aws4.resourceIcon;resIcon=mxgraph.aws4.iot_core;" parent="1" vertex="1">
          <mxGeometry x="137.5" y="796" width="78" height="78" as="geometry" />
        </mxCell>
        <mxCell id="-QjtrjUzRDEMRZ5MF8oH-20" value="Video Camera" style="outlineConnect=0;fontColor=#232F3E;gradientColor=none;fillColor=#277116;strokeColor=none;dashed=0;verticalLabelPosition=bottom;verticalAlign=top;align=center;html=1;fontSize=12;fontStyle=0;aspect=fixed;pointerEvents=1;shape=mxgraph.aws4.camera;" parent="1" vertex="1">
          <mxGeometry x="137.5" y="903.5" width="78" height="78" as="geometry" />
        </mxCell>
        <mxCell id="-QjtrjUzRDEMRZ5MF8oH-21" value="AWS IoT Core" style="outlineConnect=0;fontColor=#232F3E;gradientColor=#60A337;gradientDirection=north;fillColor=#277116;strokeColor=#ffffff;dashed=0;verticalLabelPosition=bottom;verticalAlign=top;align=center;html=1;fontSize=12;fontStyle=0;aspect=fixed;shape=mxgraph.aws4.resourceIcon;resIcon=mxgraph.aws4.internet_of_things;" parent="1" vertex="1">
          <mxGeometry x="352.5" y="711.5" width="78" height="78" as="geometry" />
        </mxCell>
        <mxCell id="-QjtrjUzRDEMRZ5MF8oH-22" value="AWS IoT Analytics" style="outlineConnect=0;fontColor=#232F3E;gradientColor=#60A337;gradientDirection=north;fillColor=#277116;strokeColor=#ffffff;dashed=0;verticalLabelPosition=bottom;verticalAlign=top;align=center;html=1;fontSize=12;fontStyle=0;aspect=fixed;shape=mxgraph.aws4.resourceIcon;resIcon=mxgraph.aws4.iot_analytics;" parent="1" vertex="1">
          <mxGeometry x="532.5" y="708.5" width="78" height="78" as="geometry" />
        </mxCell>
        <mxCell id="-QjtrjUzRDEMRZ5MF8oH-23" value="AWS IoT Events" style="outlineConnect=0;fontColor=#232F3E;gradientColor=#60A337;gradientDirection=north;fillColor=#277116;strokeColor=#ffffff;dashed=0;verticalLabelPosition=bottom;verticalAlign=top;align=center;html=1;fontSize=12;fontStyle=0;aspect=fixed;shape=mxgraph.aws4.resourceIcon;resIcon=mxgraph.aws4.iot_events;" parent="1" vertex="1">
          <mxGeometry x="721.5" y="708.5" width="78" height="78" as="geometry" />
        </mxCell>
        <mxCell id="-QjtrjUzRDEMRZ5MF8oH-24" value="Amazon SNS" style="outlineConnect=0;fontColor=#232F3E;gradientColor=#F34482;gradientDirection=north;fillColor=#BC1356;strokeColor=#ffffff;dashed=0;verticalLabelPosition=bottom;verticalAlign=top;align=center;html=1;fontSize=12;fontStyle=0;aspect=fixed;shape=mxgraph.aws4.resourceIcon;resIcon=mxgraph.aws4.sns;" parent="1" vertex="1">
          <mxGeometry x="902.5" y="708.5" width="78" height="78" as="geometry" />
        </mxCell>
        <mxCell id="-QjtrjUzRDEMRZ5MF8oH-25" value="Amazon Kinesis&lt;br&gt;Video Streams&lt;br&gt;" style="outlineConnect=0;fontColor=#232F3E;gradientColor=#945DF2;gradientDirection=north;fillColor=#5A30B5;strokeColor=#ffffff;dashed=0;verticalLabelPosition=bottom;verticalAlign=top;align=center;html=1;fontSize=12;fontStyle=0;aspect=fixed;shape=mxgraph.aws4.resourceIcon;resIcon=mxgraph.aws4.kinesis_video_streams;" parent="1" vertex="1">
          <mxGeometry x="484.5" y="874.5" width="78" height="78" as="geometry" />
        </mxCell>
        <mxCell id="-QjtrjUzRDEMRZ5MF8oH-26" value="Mobile Application" style="outlineConnect=0;fontColor=#232F3E;gradientColor=#F54749;gradientDirection=north;fillColor=#C7131F;strokeColor=#ffffff;dashed=0;verticalLabelPosition=bottom;verticalAlign=top;align=center;html=1;fontSize=12;fontStyle=0;aspect=fixed;shape=mxgraph.aws4.resourceIcon;resIcon=mxgraph.aws4.mobile;" parent="1" vertex="1">
          <mxGeometry x="785.5" y="873.5" width="78" height="78" as="geometry" />
        </mxCell>
        <mxCell id="-QjtrjUzRDEMRZ5MF8oH-27" value="2" style="rounded=1;whiteSpace=wrap;html=1;fillColor=#007CBD;strokeColor=none;fontColor=#FFFFFF;fontStyle=1;fontSize=22;" parent="1" vertex="1">
          <mxGeometry x="810.5" y="1330" width="40" height="38" as="geometry" />
        </mxCell>
        <mxCell id="-QjtrjUzRDEMRZ5MF8oH-28" value="3" style="rounded=1;whiteSpace=wrap;html=1;fillColor=#007CBD;strokeColor=none;fontColor=#FFFFFF;fontStyle=1;fontSize=22;" parent="1" vertex="1">
          <mxGeometry x="1290" y="1392" width="40" height="38" as="geometry" />
        </mxCell>
        <mxCell id="-QjtrjUzRDEMRZ5MF8oH-29" value="4" style="rounded=1;whiteSpace=wrap;html=1;fillColor=#007CBD;strokeColor=none;fontColor=#FFFFFF;fontStyle=1;fontSize=22;" parent="1" vertex="1">
          <mxGeometry x="633.5" y="399.5" width="40" height="38" as="geometry" />
        </mxCell>
        <mxCell id="-QjtrjUzRDEMRZ5MF8oH-30" value="5" style="rounded=1;whiteSpace=wrap;html=1;fillColor=#007CBD;strokeColor=none;fontColor=#FFFFFF;fontStyle=1;fontSize=22;" parent="1" vertex="1">
          <mxGeometry x="878.5" y="399.5" width="40" height="38" as="geometry" />
        </mxCell>
        <mxCell id="-QjtrjUzRDEMRZ5MF8oH-31" value="6" style="rounded=1;whiteSpace=wrap;html=1;fillColor=#007CBD;strokeColor=none;fontColor=#FFFFFF;fontStyle=1;fontSize=22;" parent="1" vertex="1">
          <mxGeometry x="136.5" y="608.5" width="40" height="38" as="geometry" />
        </mxCell>
        <mxCell id="-QjtrjUzRDEMRZ5MF8oH-32" value="7" style="rounded=1;whiteSpace=wrap;html=1;fillColor=#007CBD;strokeColor=none;fontColor=#FFFFFF;fontStyle=1;fontSize=22;" parent="1" vertex="1">
          <mxGeometry x="462.5" y="666.5" width="40" height="38" as="geometry" />
        </mxCell>
        <mxCell id="-QjtrjUzRDEMRZ5MF8oH-33" value="8" style="rounded=1;whiteSpace=wrap;html=1;fillColor=#007CBD;strokeColor=none;fontColor=#FFFFFF;fontStyle=1;fontSize=22;" parent="1" vertex="1">
          <mxGeometry x="832.5" y="666.5" width="40" height="38" as="geometry" />
        </mxCell>
        <mxCell id="-QjtrjUzRDEMRZ5MF8oH-34" value="9" style="rounded=1;whiteSpace=wrap;html=1;fillColor=#007CBD;strokeColor=none;fontColor=#FFFFFF;fontStyle=1;fontSize=22;" parent="1" vertex="1">
          <mxGeometry x="352.5" y="854.5" width="40" height="38" as="geometry" />
        </mxCell>
        <mxCell id="-QjtrjUzRDEMRZ5MF8oH-35" value="10" style="rounded=1;whiteSpace=wrap;html=1;fillColor=#007CBD;strokeColor=none;fontColor=#FFFFFF;fontStyle=1;fontSize=22;" parent="1" vertex="1">
          <mxGeometry x="652.5" y="854.5" width="40" height="38" as="geometry" />
        </mxCell>
        <mxCell id="-QjtrjUzRDEMRZ5MF8oH-47" value="Title text" style="text;html=1;resizable=0;points=[];autosize=1;align=left;verticalAlign=top;spacingTop=-4;fontSize=30;fontStyle=1" parent="1" vertex="1">
          <mxGeometry x="56.5" y="64.5" width="130" height="40" as="geometry" />
        </mxCell>
        <mxCell id="-QjtrjUzRDEMRZ5MF8oH-48" value="Subtitle text&lt;br style=&quot;font-size: 16px&quot;&gt;" style="text;html=1;resizable=0;points=[];autosize=1;align=left;verticalAlign=top;spacingTop=-4;fontSize=16;" parent="1" vertex="1">
          <mxGeometry x="56.5" y="114.5" width="100" height="20" as="geometry" />
        </mxCell>
        <mxCell id="-QjtrjUzRDEMRZ5MF8oH-49" value="Label" style="text;html=1;resizable=0;points=[];autosize=1;align=left;verticalAlign=top;spacingTop=-4;fontSize=16;fontStyle=1" parent="1" vertex="1">
          <mxGeometry x="84.5" y="164.5" width="50" height="20" as="geometry" />
        </mxCell>
        <mxCell id="SCVMTBWpLvtzJIhz15lM-1" value="" style="line;strokeWidth=2;html=1;fontSize=14;" parent="1" vertex="1">
          <mxGeometry x="52.5" y="139.5" width="1060" height="10" as="geometry" />
        </mxCell>
        <mxCell id="SCVMTBWpLvtzJIhz15lM-2" value="&lt;span&gt;Label&lt;/span&gt;" style="text;html=1;resizable=0;points=[];autosize=1;align=left;verticalAlign=top;spacingTop=-4;fontSize=14;fontStyle=1" parent="1" vertex="1">
          <mxGeometry x="442.5" y="216.5" width="50" height="20" as="geometry" />
        </mxCell>
        <mxCell id="SCVMTBWpLvtzJIhz15lM-3" value="" style="edgeStyle=orthogonalEdgeStyle;html=1;endArrow=open;elbow=vertical;startArrow=none;endFill=0;strokeColor=#545B64;rounded=0;fontSize=14;" parent="1" edge="1">
          <mxGeometry width="100" relative="1" as="geometry">
            <mxPoint x="354.5" y="394.5" as="sourcePoint" />
            <mxPoint x="404.5" y="394.5" as="targetPoint" />
          </mxGeometry>
        </mxCell>
        <mxCell id="SCVMTBWpLvtzJIhz15lM-5" value="" style="shape=curlyBracket;whiteSpace=wrap;html=1;rounded=1;fontSize=14;" parent="1" vertex="1">
          <mxGeometry x="415.5" y="248.5" width="20" height="290" as="geometry" />
        </mxCell>
        <mxCell id="SCVMTBWpLvtzJIhz15lM-17" value="&lt;span&gt;Label&lt;/span&gt;" style="edgeStyle=orthogonalEdgeStyle;html=1;endArrow=open;elbow=vertical;startArrow=none;endFill=0;strokeColor=#545B64;rounded=0;fontSize=14;strokeWidth=2;" parent="1" edge="1">
          <mxGeometry x="-0.037" y="20" width="100" relative="1" as="geometry">
            <mxPoint x="584.5" y="254.5" as="sourcePoint" />
            <mxPoint x="854.5" y="254.5" as="targetPoint" />
            <mxPoint as="offset" />
          </mxGeometry>
        </mxCell>
        <mxCell id="SCVMTBWpLvtzJIhz15lM-18" value="&lt;span&gt;Label&lt;/span&gt;" style="edgeStyle=orthogonalEdgeStyle;html=1;endArrow=none;elbow=vertical;startArrow=open;endFill=0;strokeColor=#545B64;rounded=0;fontSize=14;strokeWidth=2;startFill=0;" parent="1" edge="1">
          <mxGeometry x="-0.037" y="20" width="100" relative="1" as="geometry">
            <mxPoint x="582.5" y="318" as="sourcePoint" />
            <mxPoint x="852.5" y="318" as="targetPoint" />
            <mxPoint as="offset" />
          </mxGeometry>
        </mxCell>
        <mxCell id="SCVMTBWpLvtzJIhz15lM-19" value="&lt;span&gt;Label&lt;/span&gt;" style="edgeStyle=orthogonalEdgeStyle;html=1;endArrow=open;elbow=vertical;startArrow=none;endFill=0;strokeColor=#545B64;rounded=0;fontSize=14;strokeWidth=2;" parent="1" edge="1">
          <mxGeometry x="-0.037" y="20" width="100" relative="1" as="geometry">
            <mxPoint x="594.5000000000002" y="484.5" as="sourcePoint" />
            <mxPoint x="714.5" y="484.5" as="targetPoint" />
            <mxPoint as="offset" />
          </mxGeometry>
        </mxCell>
        <mxCell id="SCVMTBWpLvtzJIhz15lM-20" value="&lt;span&gt;Label&lt;/span&gt;" style="edgeStyle=orthogonalEdgeStyle;html=1;endArrow=open;elbow=vertical;startArrow=none;endFill=0;strokeColor=#545B64;rounded=0;fontSize=14;strokeWidth=2;" parent="1" edge="1">
          <mxGeometry x="-0.037" y="20" width="100" relative="1" as="geometry">
            <mxPoint x="838.5000000000002" y="487.5" as="sourcePoint" />
            <mxPoint x="924.5" y="487.5" as="targetPoint" />
            <mxPoint as="offset" />
          </mxGeometry>
        </mxCell>
        <mxCell id="SCVMTBWpLvtzJIhz15lM-21" value="Label" style="text;html=1;resizable=0;points=[];autosize=1;align=left;verticalAlign=top;spacingTop=-4;fontSize=16;fontStyle=1" parent="1" vertex="1">
          <mxGeometry x="66.5" y="576.5" width="50" height="20" as="geometry" />
        </mxCell>
        <mxCell id="SCVMTBWpLvtzJIhz15lM-22" value="&lt;span&gt;Label&lt;/span&gt;" style="text;html=1;resizable=0;points=[];autosize=1;align=left;verticalAlign=top;spacingTop=-4;fontSize=14;fontStyle=1" parent="1" vertex="1">
          <mxGeometry x="136.5" y="656.5" width="50" height="20" as="geometry" />
        </mxCell>
        <mxCell id="SCVMTBWpLvtzJIhz15lM-23" value="" style="shape=curlyBracket;whiteSpace=wrap;html=1;rounded=1;fontSize=14;" parent="1" vertex="1">
          <mxGeometry x="76.5" y="691.5" width="20" height="290" as="geometry" />
        </mxCell>
        <mxCell id="SCVMTBWpLvtzJIhz15lM-24" value="Video Events" style="edgeStyle=orthogonalEdgeStyle;html=1;endArrow=open;elbow=vertical;startArrow=none;endFill=0;strokeColor=#545B64;rounded=0;fontSize=14;strokeWidth=2;" parent="1" edge="1">
          <mxGeometry x="-0.037" y="20" width="100" relative="1" as="geometry">
            <mxPoint x="261.5" y="753.5" as="sourcePoint" />
            <mxPoint x="342.5" y="753.5" as="targetPoint" />
            <mxPoint as="offset" />
          </mxGeometry>
        </mxCell>
        <mxCell id="SCVMTBWpLvtzJIhz15lM-25" value="" style="edgeStyle=orthogonalEdgeStyle;html=1;endArrow=open;elbow=vertical;startArrow=none;endFill=0;strokeColor=#545B64;rounded=0;fontSize=14;strokeWidth=2;" parent="1" edge="1">
          <mxGeometry x="-0.037" y="20" width="100" relative="1" as="geometry">
            <mxPoint x="443" y="750" as="sourcePoint" />
            <mxPoint x="524" y="750" as="targetPoint" />
            <mxPoint as="offset" />
          </mxGeometry>
        </mxCell>
        <mxCell id="SCVMTBWpLvtzJIhz15lM-26" value="" style="edgeStyle=orthogonalEdgeStyle;html=1;endArrow=open;elbow=vertical;startArrow=none;endFill=0;strokeColor=#545B64;rounded=0;fontSize=14;strokeWidth=2;" parent="1" edge="1">
          <mxGeometry x="-0.037" y="20" width="100" relative="1" as="geometry">
            <mxPoint x="622.5" y="750" as="sourcePoint" />
            <mxPoint x="703.5" y="750" as="targetPoint" />
            <mxPoint as="offset" />
          </mxGeometry>
        </mxCell>
        <mxCell id="SCVMTBWpLvtzJIhz15lM-27" value="" style="edgeStyle=orthogonalEdgeStyle;html=1;endArrow=open;elbow=vertical;startArrow=none;endFill=0;strokeColor=#545B64;rounded=0;fontSize=14;strokeWidth=2;" parent="1" edge="1">
          <mxGeometry x="-0.037" y="20" width="100" relative="1" as="geometry">
            <mxPoint x="811.5" y="747.5" as="sourcePoint" />
            <mxPoint x="892.5" y="747.5" as="targetPoint" />
            <mxPoint as="offset" />
          </mxGeometry>
        </mxCell>
        <mxCell id="SCVMTBWpLvtzJIhz15lM-28" value="Video Stream" style="edgeStyle=orthogonalEdgeStyle;html=1;endArrow=open;elbow=vertical;startArrow=none;endFill=0;strokeColor=#545B64;rounded=0;fontSize=14;strokeWidth=2;" parent="1" edge="1">
          <mxGeometry x="0.0038" y="-11" width="100" relative="1" as="geometry">
            <mxPoint x="262" y="913" as="sourcePoint" />
            <mxPoint x="472.5" y="913.5" as="targetPoint" />
            <mxPoint as="offset" />
            <Array as="points">
              <mxPoint x="367.5" y="913.5" />
            </Array>
          </mxGeometry>
        </mxCell>
        <mxCell id="SCVMTBWpLvtzJIhz15lM-29" value="" style="edgeStyle=orthogonalEdgeStyle;html=1;endArrow=open;elbow=vertical;startArrow=none;endFill=0;strokeColor=#545B64;rounded=0;fontSize=14;strokeWidth=2;" parent="1" edge="1">
          <mxGeometry x="0.0038" y="-11" width="100" relative="1" as="geometry">
            <mxPoint x="575.0714285714287" y="913.2142857142858" as="sourcePoint" />
            <mxPoint x="762.5" y="913.5" as="targetPoint" />
            <mxPoint as="offset" />
            <Array as="points">
              <mxPoint x="680.5" y="913.5" />
            </Array>
          </mxGeometry>
        </mxCell>
        <mxCell id="SCVMTBWpLvtzJIhz15lM-30" value="Build" style="outlineConnect=0;gradientColor=none;fontColor=#545B64;strokeColor=none;fillColor=#879196;dashed=0;verticalLabelPosition=bottom;verticalAlign=top;align=center;html=1;fontSize=12;fontStyle=0;aspect=fixed;shape=mxgraph.aws4.illustration_devices;pointerEvents=1" parent="1" vertex="1">
          <mxGeometry x="962.5" y="179.5" width="52" height="38" as="geometry" />
        </mxCell>
        <mxCell id="SCVMTBWpLvtzJIhz15lM-31" value="Train" style="outlineConnect=0;gradientColor=none;fontColor=#545B64;strokeColor=none;fillColor=#879196;dashed=0;verticalLabelPosition=bottom;verticalAlign=top;align=center;html=1;fontSize=12;fontStyle=0;aspect=fixed;shape=mxgraph.aws4.illustration_devices;pointerEvents=1" parent="1" vertex="1">
          <mxGeometry x="892.5" y="267.5" width="52" height="38" as="geometry" />
        </mxCell>
        <mxCell id="SCVMTBWpLvtzJIhz15lM-32" value="Optimize" style="outlineConnect=0;gradientColor=none;fontColor=#545B64;strokeColor=none;fillColor=#879196;dashed=0;verticalLabelPosition=bottom;verticalAlign=top;align=center;html=1;fontSize=12;fontStyle=0;aspect=fixed;shape=mxgraph.aws4.illustration_devices;pointerEvents=1" parent="1" vertex="1">
          <mxGeometry x="1032.5" y="267.5" width="52" height="38" as="geometry" />
        </mxCell>
        <mxCell id="SCVMTBWpLvtzJIhz15lM-33" value="" style="edgeStyle=orthogonalEdgeStyle;html=1;endArrow=open;elbow=vertical;startArrow=none;endFill=0;strokeColor=#545B64;rounded=0;fontSize=14;" parent="1" edge="1">
          <mxGeometry width="100" relative="1" as="geometry">
            <mxPoint x="958.5" y="293.5" as="sourcePoint" />
            <mxPoint x="1018.5" y="293.5" as="targetPoint" />
          </mxGeometry>
        </mxCell>
        <mxCell id="SCVMTBWpLvtzJIhz15lM-35" value="" style="edgeStyle=orthogonalEdgeStyle;html=1;endArrow=open;elbow=vertical;startArrow=none;endFill=0;strokeColor=#545B64;rounded=0;fontSize=14;" parent="1" edge="1">
          <mxGeometry width="100" relative="1" as="geometry">
            <mxPoint x="992.5" y="236.46774193548387" as="sourcePoint" />
            <mxPoint x="992.5" y="256.4677419354839" as="targetPoint" />
          </mxGeometry>
        </mxCell>
        <mxCell id="7OVz4w7n9kzEPWy-4BBC-3" value="" style="rounded=0;whiteSpace=wrap;html=1;fillColor=#EAEDED;fontSize=22;fontColor=#FFFFFF;strokeColor=none;labelBackgroundColor=none;" parent="1" vertex="1">
          <mxGeometry x="1151" y="51" width="539" height="1220" as="geometry" />
        </mxCell>
        <mxCell id="7OVz4w7n9kzEPWy-4BBC-4" value="1" style="rounded=1;whiteSpace=wrap;html=1;fillColor=#007CBD;strokeColor=none;fontColor=#FFFFFF;fontStyle=1;fontSize=22;labelBackgroundColor=none;" parent="1" vertex="1">
          <mxGeometry x="1169" y="63" width="40" height="38" as="geometry" />
        </mxCell>
        <mxCell id="7OVz4w7n9kzEPWy-4BBC-5" value="2" style="rounded=1;whiteSpace=wrap;html=1;fillColor=#007CBD;strokeColor=none;fontColor=#FFFFFF;fontStyle=1;fontSize=22;labelBackgroundColor=none;" parent="1" vertex="1">
          <mxGeometry x="1167.5" y="185" width="40" height="38" as="geometry" />
        </mxCell>
        <mxCell id="7OVz4w7n9kzEPWy-4BBC-6" value="3" style="rounded=1;whiteSpace=wrap;html=1;fillColor=#007CBD;strokeColor=none;fontColor=#FFFFFF;fontStyle=1;fontSize=22;labelBackgroundColor=none;" parent="1" vertex="1">
          <mxGeometry x="1167.5" y="305" width="40" height="38" as="geometry" />
        </mxCell>
        <mxCell id="7OVz4w7n9kzEPWy-4BBC-7" value="4" style="rounded=1;whiteSpace=wrap;html=1;fillColor=#007CBD;strokeColor=none;fontColor=#FFFFFF;fontStyle=1;fontSize=22;labelBackgroundColor=none;" parent="1" vertex="1">
          <mxGeometry x="1167.5" y="419" width="40" height="38" as="geometry" />
        </mxCell>
        <mxCell id="7OVz4w7n9kzEPWy-4BBC-8" value="5" style="rounded=1;whiteSpace=wrap;html=1;fillColor=#007CBD;strokeColor=none;fontColor=#FFFFFF;fontStyle=1;fontSize=22;labelBackgroundColor=none;" parent="1" vertex="1">
          <mxGeometry x="1169" y="536" width="40" height="38" as="geometry" />
        </mxCell>
        <mxCell id="7OVz4w7n9kzEPWy-4BBC-9" value="6" style="rounded=1;whiteSpace=wrap;html=1;fillColor=#007CBD;strokeColor=none;fontColor=#FFFFFF;fontStyle=1;fontSize=22;labelBackgroundColor=none;" parent="1" vertex="1">
          <mxGeometry x="1170" y="651" width="40" height="38" as="geometry" />
        </mxCell>
        <mxCell id="7OVz4w7n9kzEPWy-4BBC-10" value="7" style="rounded=1;whiteSpace=wrap;html=1;fillColor=#007CBD;strokeColor=none;fontColor=#FFFFFF;fontStyle=1;fontSize=22;labelBackgroundColor=none;" parent="1" vertex="1">
          <mxGeometry x="1169.5" y="767" width="40" height="38" as="geometry" />
        </mxCell>
        <mxCell id="7OVz4w7n9kzEPWy-4BBC-11" value="8" style="rounded=1;whiteSpace=wrap;html=1;fillColor=#007CBD;strokeColor=none;fontColor=#FFFFFF;fontStyle=1;fontSize=22;labelBackgroundColor=none;" parent="1" vertex="1">
          <mxGeometry x="1170" y="885" width="40" height="38" as="geometry" />
        </mxCell>
        <mxCell id="7OVz4w7n9kzEPWy-4BBC-12" value="9" style="rounded=1;whiteSpace=wrap;html=1;fillColor=#007CBD;strokeColor=none;fontColor=#FFFFFF;fontStyle=1;fontSize=22;labelBackgroundColor=none;" parent="1" vertex="1">
          <mxGeometry x="1168" y="1005" width="40" height="38" as="geometry" />
        </mxCell>
        <mxCell id="7OVz4w7n9kzEPWy-4BBC-13" value="AWS Glue will query the AurorDB to grab a list of the changed beans and process them into their appropriate S3 folder." style="text;html=1;align=left;verticalAlign=top;spacingTop=-4;fontSize=14;labelBackgroundColor=none;whiteSpace=wrap;" parent="1" vertex="1">
          <mxGeometry x="1220.5" y="62.5" width="449" height="118" as="geometry" />
        </mxCell>
        <mxCell id="7OVz4w7n9kzEPWy-4BBC-14" value="&lt;span&gt;An external table connection will allow Snowflake to read from the S3 buckets and COPY INTO a raw data layer in table format. Using a variant data type, Snowflake will be able to parse the XML into a readable format.&lt;/span&gt;" style="text;html=1;align=left;verticalAlign=top;spacingTop=-4;fontSize=14;labelBackgroundColor=none;whiteSpace=wrap;" parent="1" vertex="1">
          <mxGeometry x="1219.5" y="185.5" width="450" height="115" as="geometry" />
        </mxCell>
        <mxCell id="7OVz4w7n9kzEPWy-4BBC-15" value="Using a transformation tool (DBT or native stored procedures), the data will be transformed into the Silver layer.&amp;nbsp;" style="text;html=1;align=left;verticalAlign=top;spacingTop=-4;fontSize=14;labelBackgroundColor=none;whiteSpace=wrap;" parent="1" vertex="1">
          <mxGeometry x="1219.5" y="303.5" width="450" height="117" as="geometry" />
        </mxCell>
        <mxCell id="7OVz4w7n9kzEPWy-4BBC-16" value="&lt;span&gt;The transformation tool can then be scheduled to load the Dimension and Fact tables.&lt;/span&gt;" style="text;html=1;align=left;verticalAlign=top;spacingTop=-4;fontSize=14;labelBackgroundColor=none;whiteSpace=wrap;" parent="1" vertex="1">
          <mxGeometry x="1219.5" y="419.5" width="450" height="121" as="geometry" />
        </mxCell>
        <mxCell id="7OVz4w7n9kzEPWy-4BBC-17" value="&lt;span&gt;Lorem ipsum dolor sit amet, consectetur adipiscing elit, sed do eiusmod tempor incididunt ut labore et dolore magna aliqua. Ut enim ad minim veniam, quis nostrud exercitation ullamco laboris nisi ut aliquip ex ea commodo consequat. Duis aute irure dolor in reprehenderit in voluptate velit esse cillum dolore eu fugiat nulla pariatur. Excepteur sint occaecat cupidatat non proident, sunt in culpa qui officia deserunt mollit anim id est laborum.&lt;/span&gt;&lt;br&gt;" style="text;html=1;align=left;verticalAlign=top;spacingTop=-4;fontSize=14;labelBackgroundColor=none;whiteSpace=wrap;" parent="1" vertex="1">
          <mxGeometry x="1220.5" y="536.5" width="449" height="114" as="geometry" />
        </mxCell>
        <mxCell id="7OVz4w7n9kzEPWy-4BBC-18" value="&lt;span&gt;Lorem ipsum dolor sit amet, consectetur adipiscing elit, sed do eiusmod tempor incididunt ut labore et dolore magna aliqua. Ut enim ad minim veniam, quis nostrud exercitation ullamco laboris nisi ut aliquip ex ea commodo consequat. Duis aute irure dolor in reprehenderit in voluptate velit esse cillum dolore eu fugiat nulla pariatur. Excepteur sint occaecat cupidatat non proident, sunt in culpa qui officia deserunt mollit anim id est laborum.&lt;/span&gt;&lt;br&gt;" style="text;html=1;align=left;verticalAlign=top;spacingTop=-4;fontSize=14;labelBackgroundColor=none;whiteSpace=wrap;" parent="1" vertex="1">
          <mxGeometry x="1220.5" y="652.5" width="450" height="118" as="geometry" />
        </mxCell>
        <mxCell id="7OVz4w7n9kzEPWy-4BBC-19" value="&lt;span&gt;Lorem ipsum dolor sit amet, consectetur adipiscing elit, sed do eiusmod tempor incididunt ut labore et dolore magna aliqua. Ut enim ad minim veniam, quis nostrud exercitation ullamco laboris nisi ut aliquip ex ea commodo consequat. Duis aute irure dolor in reprehenderit in voluptate velit esse cillum dolore eu fugiat nulla pariatur. Excepteur sint occaecat cupidatat non proident, sunt in culpa qui officia deserunt mollit anim id est laborum.&lt;/span&gt;&lt;br&gt;" style="text;html=1;align=left;verticalAlign=top;spacingTop=-4;fontSize=14;labelBackgroundColor=none;whiteSpace=wrap;" parent="1" vertex="1">
          <mxGeometry x="1220.5" y="767.5" width="449" height="113" as="geometry" />
        </mxCell>
        <mxCell id="7OVz4w7n9kzEPWy-4BBC-20" value="&lt;span&gt;Lorem ipsum dolor sit amet, consectetur adipiscing elit, sed do eiusmod tempor incididunt ut labore et dolore magna aliqua. Ut enim ad minim veniam, quis nostrud exercitation ullamco laboris nisi ut aliquip ex ea commodo consequat. Duis aute irure dolor in reprehenderit in voluptate velit esse cillum dolore eu fugiat nulla pariatur. Excepteur sint occaecat cupidatat non proident, sunt in culpa qui officia deserunt mollit anim id est laborum.&lt;/span&gt;&lt;br&gt;" style="text;html=1;align=left;verticalAlign=top;spacingTop=-4;fontSize=14;labelBackgroundColor=none;whiteSpace=wrap;" parent="1" vertex="1">
          <mxGeometry x="1220.5" y="886.5" width="449" height="124" as="geometry" />
        </mxCell>
        <mxCell id="7OVz4w7n9kzEPWy-4BBC-21" value="&lt;span&gt;Lorem ipsum dolor sit amet, consectetur adipiscing elit, sed do eiusmod tempor incididunt ut labore et dolore magna aliqua. Ut enim ad minim veniam, quis nostrud exercitation ullamco laboris nisi ut aliquip ex ea commodo consequat. Duis aute irure dolor in reprehenderit in voluptate velit esse cillum dolore eu fugiat nulla pariatur. Excepteur sint occaecat cupidatat non proident, sunt in culpa qui officia deserunt mollit anim id est laborum.&lt;/span&gt;&lt;br&gt;" style="text;html=1;align=left;verticalAlign=top;spacingTop=-4;fontSize=14;labelBackgroundColor=none;whiteSpace=wrap;" parent="1" vertex="1">
          <mxGeometry x="1220.5" y="1005.5" width="449" height="115" as="geometry" />
        </mxCell>
        <mxCell id="7OVz4w7n9kzEPWy-4BBC-22" value="10" style="rounded=1;whiteSpace=wrap;html=1;fillColor=#007CBD;strokeColor=none;fontColor=#FFFFFF;fontStyle=1;fontSize=22;labelBackgroundColor=none;" parent="1" vertex="1">
          <mxGeometry x="1169" y="1130.5" width="40" height="38" as="geometry" />
        </mxCell>
        <mxCell id="7OVz4w7n9kzEPWy-4BBC-23" value="&lt;span&gt;Lorem ipsum dolor sit amet, consectetur adipiscing elit, sed do eiusmod tempor incididunt ut labore et dolore magna aliqua. Ut enim ad minim veniam, quis nostrud exercitation ullamco laboris nisi ut aliquip ex ea commodo consequat. Duis aute irure dolor in reprehenderit in voluptate velit esse cillum dolore eu fugiat nulla pariatur. Excepteur sint occaecat cupidatat non proident, sunt in culpa qui officia deserunt mollit anim id est laborum.&lt;/span&gt;&lt;br&gt;" style="text;html=1;align=left;verticalAlign=top;spacingTop=-4;fontSize=14;labelBackgroundColor=none;whiteSpace=wrap;" parent="1" vertex="1">
          <mxGeometry x="1221.5" y="1131" width="449" height="115" as="geometry" />
        </mxCell>
        <mxCell id="D712IfISyNJ3r9-J-6BS-6" value="" style="edgeStyle=orthogonalEdgeStyle;rounded=0;orthogonalLoop=1;jettySize=auto;html=1;" edge="1" parent="1" source="D712IfISyNJ3r9-J-6BS-1" target="D712IfISyNJ3r9-J-6BS-5">
          <mxGeometry relative="1" as="geometry" />
        </mxCell>
        <mxCell id="D712IfISyNJ3r9-J-6BS-1" value="AuroraDB" style="sketch=0;points=[[0,0,0],[0.25,0,0],[0.5,0,0],[0.75,0,0],[1,0,0],[0,1,0],[0.25,1,0],[0.5,1,0],[0.75,1,0],[1,1,0],[0,0.25,0],[0,0.5,0],[0,0.75,0],[1,0.25,0],[1,0.5,0],[1,0.75,0]];outlineConnect=0;fontColor=#232F3E;fillColor=#C925D1;strokeColor=#ffffff;dashed=0;verticalLabelPosition=bottom;verticalAlign=top;align=center;html=1;fontSize=12;fontStyle=0;aspect=fixed;shape=mxgraph.aws4.resourceIcon;resIcon=mxgraph.aws4.aurora;" vertex="1" parent="1">
          <mxGeometry x="96.5" y="1446" width="78" height="78" as="geometry" />
        </mxCell>
        <mxCell id="D712IfISyNJ3r9-J-6BS-2" value="" style="outlineConnect=0;dashed=0;verticalLabelPosition=bottom;verticalAlign=top;align=center;html=1;shape=mxgraph.aws3.lambda_function;fillColor=#F58534;gradientColor=none;" vertex="1" parent="1">
          <mxGeometry x="1010" y="790" width="69" height="72" as="geometry" />
        </mxCell>
        <mxCell id="D712IfISyNJ3r9-J-6BS-3" value="" style="sketch=0;points=[[0,0,0],[0.25,0,0],[0.5,0,0],[0.75,0,0],[1,0,0],[0,1,0],[0.25,1,0],[0.5,1,0],[0.75,1,0],[1,1,0],[0,0.25,0],[0,0.5,0],[0,0.75,0],[1,0.25,0],[1,0.5,0],[1,0.75,0]];outlineConnect=0;fontColor=#232F3E;fillColor=#ED7100;strokeColor=#ffffff;dashed=0;verticalLabelPosition=bottom;verticalAlign=top;align=center;html=1;fontSize=12;fontStyle=0;aspect=fixed;shape=mxgraph.aws4.resourceIcon;resIcon=mxgraph.aws4.lambda;" vertex="1" parent="1">
          <mxGeometry x="275" y="1150" width="78" height="78" as="geometry" />
        </mxCell>
        <mxCell id="D712IfISyNJ3r9-J-6BS-4" value="AWS S3" style="sketch=0;points=[[0,0,0],[0.25,0,0],[0.5,0,0],[0.75,0,0],[1,0,0],[0,1,0],[0.25,1,0],[0.5,1,0],[0.75,1,0],[1,1,0],[0,0.25,0],[0,0.5,0],[0,0.75,0],[1,0.25,0],[1,0.5,0],[1,0.75,0]];outlineConnect=0;fontColor=#232F3E;fillColor=#7AA116;strokeColor=#ffffff;dashed=0;verticalLabelPosition=bottom;verticalAlign=top;align=center;html=1;fontSize=12;fontStyle=0;aspect=fixed;shape=mxgraph.aws4.resourceIcon;resIcon=mxgraph.aws4.s3;" vertex="1" parent="1">
          <mxGeometry x="366.5" y="1360" width="30" height="30" as="geometry" />
        </mxCell>
        <mxCell id="D712IfISyNJ3r9-J-6BS-23" style="edgeStyle=orthogonalEdgeStyle;rounded=0;orthogonalLoop=1;jettySize=auto;html=1;" edge="1" parent="1" source="D712IfISyNJ3r9-J-6BS-8" target="D712IfISyNJ3r9-J-6BS-22">
          <mxGeometry relative="1" as="geometry" />
        </mxCell>
        <mxCell id="D712IfISyNJ3r9-J-6BS-8" value="AWS S3" style="fillColor=none;strokeColor=#5A6C86;dashed=1;verticalAlign=top;fontStyle=0;fontColor=#5A6C86;whiteSpace=wrap;html=1;" vertex="1" parent="1">
          <mxGeometry x="366.5" y="1360" width="373.5" height="250" as="geometry" />
        </mxCell>
        <mxCell id="D712IfISyNJ3r9-J-6BS-10" value="" style="edgeStyle=orthogonalEdgeStyle;rounded=0;orthogonalLoop=1;jettySize=auto;html=1;" edge="1" parent="1" source="D712IfISyNJ3r9-J-6BS-5" target="D712IfISyNJ3r9-J-6BS-8">
          <mxGeometry relative="1" as="geometry" />
        </mxCell>
        <mxCell id="D712IfISyNJ3r9-J-6BS-5" value="AWS Glue" style="sketch=0;points=[[0,0,0],[0.25,0,0],[0.5,0,0],[0.75,0,0],[1,0,0],[0,1,0],[0.25,1,0],[0.5,1,0],[0.75,1,0],[1,1,0],[0,0.25,0],[0,0.5,0],[0,0.75,0],[1,0.25,0],[1,0.5,0],[1,0.75,0]];outlineConnect=0;fontColor=#232F3E;fillColor=#8C4FFF;strokeColor=#ffffff;dashed=0;verticalLabelPosition=bottom;verticalAlign=top;align=center;html=1;fontSize=12;fontStyle=0;aspect=fixed;shape=mxgraph.aws4.resourceIcon;resIcon=mxgraph.aws4.glue;" vertex="1" parent="1">
          <mxGeometry x="240" y="1446" width="78" height="78" as="geometry" />
        </mxCell>
        <mxCell id="D712IfISyNJ3r9-J-6BS-11" value="Policy" style="image;aspect=fixed;html=1;points=[];align=center;fontSize=12;image=img/lib/azure2/general/Folder_Blank.svg;" vertex="1" parent="1">
          <mxGeometry x="454.5" y="1430" width="69" height="56.00000000000001" as="geometry" />
        </mxCell>
        <mxCell id="D712IfISyNJ3r9-J-6BS-12" value="etc" style="image;aspect=fixed;html=1;points=[];align=center;fontSize=12;image=img/lib/azure2/general/Folder_Blank.svg;" vertex="1" parent="1">
          <mxGeometry x="454.5" y="1510" width="69" height="56.00000000000001" as="geometry" />
        </mxCell>
        <mxCell id="D712IfISyNJ3r9-J-6BS-13" value="etc" style="image;aspect=fixed;html=1;points=[];align=center;fontSize=12;image=img/lib/azure2/general/Folder_Blank.svg;" vertex="1" parent="1">
          <mxGeometry x="541.5" y="1510" width="69" height="56.00000000000001" as="geometry" />
        </mxCell>
        <mxCell id="D712IfISyNJ3r9-J-6BS-14" value="Customer" style="image;aspect=fixed;html=1;points=[];align=center;fontSize=12;image=img/lib/azure2/general/Folder_Blank.svg;" vertex="1" parent="1">
          <mxGeometry x="541.5" y="1430" width="69" height="56.00000000000001" as="geometry" />
        </mxCell>
        <mxCell id="D712IfISyNJ3r9-J-6BS-15" value="etc" style="image;aspect=fixed;html=1;points=[];align=center;fontSize=12;image=img/lib/azure2/general/Folder_Blank.svg;" vertex="1" parent="1">
          <mxGeometry x="638" y="1514" width="69" height="56.00000000000001" as="geometry" />
        </mxCell>
        <mxCell id="D712IfISyNJ3r9-J-6BS-16" value="Claim" style="image;aspect=fixed;html=1;points=[];align=center;fontSize=12;image=img/lib/azure2/general/Folder_Blank.svg;" vertex="1" parent="1">
          <mxGeometry x="638" y="1430" width="69" height="56.00000000000001" as="geometry" />
        </mxCell>
        <mxCell id="D712IfISyNJ3r9-J-6BS-17" value="" style="rounded=0;whiteSpace=wrap;html=1;fillColor=none;" vertex="1" parent="1">
          <mxGeometry x="431.5" y="1410" width="288.5" height="190" as="geometry" />
        </mxCell>
        <mxCell id="D712IfISyNJ3r9-J-6BS-19" value="Raw Bean" style="text;html=1;align=center;verticalAlign=middle;whiteSpace=wrap;rounded=0;" vertex="1" parent="1">
          <mxGeometry x="532.5" y="1380" width="60" height="30" as="geometry" />
        </mxCell>
        <mxCell id="D712IfISyNJ3r9-J-6BS-20" value="Snowflake" style="shape=mxgraph.signs.nature.snowflake;html=1;pointerEvents=1;fillColor=#000000;strokeColor=none;verticalLabelPosition=bottom;verticalAlign=top;align=center;" vertex="1" parent="1">
          <mxGeometry x="910" y="1360" width="38" height="40" as="geometry" />
        </mxCell>
        <mxCell id="D712IfISyNJ3r9-J-6BS-35" value="Snowflake" style="fillColor=none;strokeColor=#5A6C86;dashed=1;verticalAlign=top;fontStyle=0;fontColor=#5A6C86;whiteSpace=wrap;html=1;" vertex="1" parent="1">
          <mxGeometry x="910" y="1360" width="1080" height="250" as="geometry" />
        </mxCell>
        <mxCell id="D712IfISyNJ3r9-J-6BS-44" style="edgeStyle=orthogonalEdgeStyle;rounded=0;orthogonalLoop=1;jettySize=auto;html=1;entryX=0;entryY=0.5;entryDx=0;entryDy=0;" edge="1" parent="1" source="D712IfISyNJ3r9-J-6BS-22" target="D712IfISyNJ3r9-J-6BS-35">
          <mxGeometry relative="1" as="geometry" />
        </mxCell>
        <mxCell id="D712IfISyNJ3r9-J-6BS-22" value="" style="sketch=0;outlineConnect=0;fontColor=#232F3E;gradientColor=none;fillColor=#DD344C;strokeColor=none;dashed=0;verticalLabelPosition=bottom;verticalAlign=top;align=center;html=1;fontSize=12;fontStyle=0;aspect=fixed;pointerEvents=1;shape=mxgraph.aws4.data_encryption_key;" vertex="1" parent="1">
          <mxGeometry x="799.5" y="1446" width="62" height="78" as="geometry" />
        </mxCell>
        <mxCell id="D712IfISyNJ3r9-J-6BS-46" value="" style="edgeStyle=orthogonalEdgeStyle;rounded=0;orthogonalLoop=1;jettySize=auto;html=1;" edge="1" parent="1" source="D712IfISyNJ3r9-J-6BS-42" target="D712IfISyNJ3r9-J-6BS-45">
          <mxGeometry relative="1" as="geometry" />
        </mxCell>
        <mxCell id="D712IfISyNJ3r9-J-6BS-54" value="Transformation" style="edgeLabel;html=1;align=center;verticalAlign=middle;resizable=0;points=[];" vertex="1" connectable="0" parent="D712IfISyNJ3r9-J-6BS-46">
          <mxGeometry x="0.0259" y="3" relative="1" as="geometry">
            <mxPoint x="1" as="offset" />
          </mxGeometry>
        </mxCell>
        <mxCell id="D712IfISyNJ3r9-J-6BS-43" value="inow.external_tables" style="text;html=1;align=center;verticalAlign=middle;whiteSpace=wrap;rounded=0;" vertex="1" parent="1">
          <mxGeometry x="1057.25" y="1380" width="124" height="30" as="geometry" />
        </mxCell>
        <mxCell id="D712IfISyNJ3r9-J-6BS-45" value="" style="rounded=0;whiteSpace=wrap;html=1;fillColor=none;" vertex="1" parent="1">
          <mxGeometry x="1360" y="1410" width="288.5" height="190" as="geometry" />
        </mxCell>
        <mxCell id="D712IfISyNJ3r9-J-6BS-47" value="dwh.silver" style="text;html=1;align=center;verticalAlign=middle;whiteSpace=wrap;rounded=0;" vertex="1" parent="1">
          <mxGeometry x="1440" y="1384" width="124" height="30" as="geometry" />
        </mxCell>
        <mxCell id="8Xgg-awBeIywaNccyWZv-37" value="etc" style="shape=table;startSize=30;container=1;collapsible=0;childLayout=tableLayout;strokeColor=default;fontSize=16;" vertex="1" parent="1">
          <mxGeometry x="1082" y="1510" width="69" height="50" as="geometry" />
        </mxCell>
        <mxCell id="8Xgg-awBeIywaNccyWZv-38" value="" style="shape=tableRow;horizontal=0;startSize=0;swimlaneHead=0;swimlaneBody=0;strokeColor=inherit;top=0;left=0;bottom=0;right=0;collapsible=0;dropTarget=0;fillColor=none;points=[[0,0.5],[1,0.5]];portConstraint=eastwest;fontSize=16;" vertex="1" parent="8Xgg-awBeIywaNccyWZv-37">
          <mxGeometry y="30" width="69" height="7" as="geometry" />
        </mxCell>
        <mxCell id="8Xgg-awBeIywaNccyWZv-39" value="" style="shape=partialRectangle;html=1;whiteSpace=wrap;connectable=0;strokeColor=inherit;overflow=hidden;fillColor=none;top=0;left=0;bottom=0;right=0;pointerEvents=1;fontSize=16;" vertex="1" parent="8Xgg-awBeIywaNccyWZv-38">
          <mxGeometry width="23" height="7" as="geometry">
            <mxRectangle width="23" height="7" as="alternateBounds" />
          </mxGeometry>
        </mxCell>
        <mxCell id="8Xgg-awBeIywaNccyWZv-40" value="" style="shape=partialRectangle;html=1;whiteSpace=wrap;connectable=0;strokeColor=inherit;overflow=hidden;fillColor=none;top=0;left=0;bottom=0;right=0;pointerEvents=1;fontSize=16;" vertex="1" parent="8Xgg-awBeIywaNccyWZv-38">
          <mxGeometry x="23" width="23" height="7" as="geometry">
            <mxRectangle width="23" height="7" as="alternateBounds" />
          </mxGeometry>
        </mxCell>
        <mxCell id="8Xgg-awBeIywaNccyWZv-41" value="" style="shape=partialRectangle;html=1;whiteSpace=wrap;connectable=0;strokeColor=inherit;overflow=hidden;fillColor=none;top=0;left=0;bottom=0;right=0;pointerEvents=1;fontSize=16;" vertex="1" parent="8Xgg-awBeIywaNccyWZv-38">
          <mxGeometry x="46" width="23" height="7" as="geometry">
            <mxRectangle width="23" height="7" as="alternateBounds" />
          </mxGeometry>
        </mxCell>
        <mxCell id="8Xgg-awBeIywaNccyWZv-42" value="" style="shape=tableRow;horizontal=0;startSize=0;swimlaneHead=0;swimlaneBody=0;strokeColor=inherit;top=0;left=0;bottom=0;right=0;collapsible=0;dropTarget=0;fillColor=none;points=[[0,0.5],[1,0.5]];portConstraint=eastwest;fontSize=16;" vertex="1" parent="8Xgg-awBeIywaNccyWZv-37">
          <mxGeometry y="37" width="69" height="6" as="geometry" />
        </mxCell>
        <mxCell id="8Xgg-awBeIywaNccyWZv-43" value="" style="shape=partialRectangle;html=1;whiteSpace=wrap;connectable=0;strokeColor=inherit;overflow=hidden;fillColor=none;top=0;left=0;bottom=0;right=0;pointerEvents=1;fontSize=16;" vertex="1" parent="8Xgg-awBeIywaNccyWZv-42">
          <mxGeometry width="23" height="6" as="geometry">
            <mxRectangle width="23" height="6" as="alternateBounds" />
          </mxGeometry>
        </mxCell>
        <mxCell id="8Xgg-awBeIywaNccyWZv-44" value="" style="shape=partialRectangle;html=1;whiteSpace=wrap;connectable=0;strokeColor=inherit;overflow=hidden;fillColor=none;top=0;left=0;bottom=0;right=0;pointerEvents=1;fontSize=16;" vertex="1" parent="8Xgg-awBeIywaNccyWZv-42">
          <mxGeometry x="23" width="23" height="6" as="geometry">
            <mxRectangle width="23" height="6" as="alternateBounds" />
          </mxGeometry>
        </mxCell>
        <mxCell id="8Xgg-awBeIywaNccyWZv-45" value="" style="shape=partialRectangle;html=1;whiteSpace=wrap;connectable=0;strokeColor=inherit;overflow=hidden;fillColor=none;top=0;left=0;bottom=0;right=0;pointerEvents=1;fontSize=16;" vertex="1" parent="8Xgg-awBeIywaNccyWZv-42">
          <mxGeometry x="46" width="23" height="6" as="geometry">
            <mxRectangle width="23" height="6" as="alternateBounds" />
          </mxGeometry>
        </mxCell>
        <mxCell id="8Xgg-awBeIywaNccyWZv-46" value="" style="shape=tableRow;horizontal=0;startSize=0;swimlaneHead=0;swimlaneBody=0;strokeColor=inherit;top=0;left=0;bottom=0;right=0;collapsible=0;dropTarget=0;fillColor=none;points=[[0,0.5],[1,0.5]];portConstraint=eastwest;fontSize=16;" vertex="1" parent="8Xgg-awBeIywaNccyWZv-37">
          <mxGeometry y="43" width="69" height="7" as="geometry" />
        </mxCell>
        <mxCell id="8Xgg-awBeIywaNccyWZv-47" value="" style="shape=partialRectangle;html=1;whiteSpace=wrap;connectable=0;strokeColor=inherit;overflow=hidden;fillColor=none;top=0;left=0;bottom=0;right=0;pointerEvents=1;fontSize=16;" vertex="1" parent="8Xgg-awBeIywaNccyWZv-46">
          <mxGeometry width="23" height="7" as="geometry">
            <mxRectangle width="23" height="7" as="alternateBounds" />
          </mxGeometry>
        </mxCell>
        <mxCell id="8Xgg-awBeIywaNccyWZv-48" value="" style="shape=partialRectangle;html=1;whiteSpace=wrap;connectable=0;strokeColor=inherit;overflow=hidden;fillColor=none;top=0;left=0;bottom=0;right=0;pointerEvents=1;fontSize=16;" vertex="1" parent="8Xgg-awBeIywaNccyWZv-46">
          <mxGeometry x="23" width="23" height="7" as="geometry">
            <mxRectangle width="23" height="7" as="alternateBounds" />
          </mxGeometry>
        </mxCell>
        <mxCell id="8Xgg-awBeIywaNccyWZv-49" value="" style="shape=partialRectangle;html=1;whiteSpace=wrap;connectable=0;strokeColor=inherit;overflow=hidden;fillColor=none;top=0;left=0;bottom=0;right=0;pointerEvents=1;fontSize=16;" vertex="1" parent="8Xgg-awBeIywaNccyWZv-46">
          <mxGeometry x="46" width="23" height="7" as="geometry">
            <mxRectangle width="23" height="7" as="alternateBounds" />
          </mxGeometry>
        </mxCell>
        <mxCell id="8Xgg-awBeIywaNccyWZv-50" value="etc" style="shape=table;startSize=30;container=1;collapsible=0;childLayout=tableLayout;strokeColor=default;fontSize=16;" vertex="1" parent="1">
          <mxGeometry x="988.25" y="1510" width="69" height="50" as="geometry" />
        </mxCell>
        <mxCell id="8Xgg-awBeIywaNccyWZv-51" value="" style="shape=tableRow;horizontal=0;startSize=0;swimlaneHead=0;swimlaneBody=0;strokeColor=inherit;top=0;left=0;bottom=0;right=0;collapsible=0;dropTarget=0;fillColor=none;points=[[0,0.5],[1,0.5]];portConstraint=eastwest;fontSize=16;" vertex="1" parent="8Xgg-awBeIywaNccyWZv-50">
          <mxGeometry y="30" width="69" height="7" as="geometry" />
        </mxCell>
        <mxCell id="8Xgg-awBeIywaNccyWZv-52" value="" style="shape=partialRectangle;html=1;whiteSpace=wrap;connectable=0;strokeColor=inherit;overflow=hidden;fillColor=none;top=0;left=0;bottom=0;right=0;pointerEvents=1;fontSize=16;" vertex="1" parent="8Xgg-awBeIywaNccyWZv-51">
          <mxGeometry width="23" height="7" as="geometry">
            <mxRectangle width="23" height="7" as="alternateBounds" />
          </mxGeometry>
        </mxCell>
        <mxCell id="8Xgg-awBeIywaNccyWZv-53" value="" style="shape=partialRectangle;html=1;whiteSpace=wrap;connectable=0;strokeColor=inherit;overflow=hidden;fillColor=none;top=0;left=0;bottom=0;right=0;pointerEvents=1;fontSize=16;" vertex="1" parent="8Xgg-awBeIywaNccyWZv-51">
          <mxGeometry x="23" width="23" height="7" as="geometry">
            <mxRectangle width="23" height="7" as="alternateBounds" />
          </mxGeometry>
        </mxCell>
        <mxCell id="8Xgg-awBeIywaNccyWZv-54" value="" style="shape=partialRectangle;html=1;whiteSpace=wrap;connectable=0;strokeColor=inherit;overflow=hidden;fillColor=none;top=0;left=0;bottom=0;right=0;pointerEvents=1;fontSize=16;" vertex="1" parent="8Xgg-awBeIywaNccyWZv-51">
          <mxGeometry x="46" width="23" height="7" as="geometry">
            <mxRectangle width="23" height="7" as="alternateBounds" />
          </mxGeometry>
        </mxCell>
        <mxCell id="8Xgg-awBeIywaNccyWZv-55" value="" style="shape=tableRow;horizontal=0;startSize=0;swimlaneHead=0;swimlaneBody=0;strokeColor=inherit;top=0;left=0;bottom=0;right=0;collapsible=0;dropTarget=0;fillColor=none;points=[[0,0.5],[1,0.5]];portConstraint=eastwest;fontSize=16;" vertex="1" parent="8Xgg-awBeIywaNccyWZv-50">
          <mxGeometry y="37" width="69" height="6" as="geometry" />
        </mxCell>
        <mxCell id="8Xgg-awBeIywaNccyWZv-56" value="" style="shape=partialRectangle;html=1;whiteSpace=wrap;connectable=0;strokeColor=inherit;overflow=hidden;fillColor=none;top=0;left=0;bottom=0;right=0;pointerEvents=1;fontSize=16;" vertex="1" parent="8Xgg-awBeIywaNccyWZv-55">
          <mxGeometry width="23" height="6" as="geometry">
            <mxRectangle width="23" height="6" as="alternateBounds" />
          </mxGeometry>
        </mxCell>
        <mxCell id="8Xgg-awBeIywaNccyWZv-57" value="" style="shape=partialRectangle;html=1;whiteSpace=wrap;connectable=0;strokeColor=inherit;overflow=hidden;fillColor=none;top=0;left=0;bottom=0;right=0;pointerEvents=1;fontSize=16;" vertex="1" parent="8Xgg-awBeIywaNccyWZv-55">
          <mxGeometry x="23" width="23" height="6" as="geometry">
            <mxRectangle width="23" height="6" as="alternateBounds" />
          </mxGeometry>
        </mxCell>
        <mxCell id="8Xgg-awBeIywaNccyWZv-58" value="" style="shape=partialRectangle;html=1;whiteSpace=wrap;connectable=0;strokeColor=inherit;overflow=hidden;fillColor=none;top=0;left=0;bottom=0;right=0;pointerEvents=1;fontSize=16;" vertex="1" parent="8Xgg-awBeIywaNccyWZv-55">
          <mxGeometry x="46" width="23" height="6" as="geometry">
            <mxRectangle width="23" height="6" as="alternateBounds" />
          </mxGeometry>
        </mxCell>
        <mxCell id="8Xgg-awBeIywaNccyWZv-59" value="" style="shape=tableRow;horizontal=0;startSize=0;swimlaneHead=0;swimlaneBody=0;strokeColor=inherit;top=0;left=0;bottom=0;right=0;collapsible=0;dropTarget=0;fillColor=none;points=[[0,0.5],[1,0.5]];portConstraint=eastwest;fontSize=16;" vertex="1" parent="8Xgg-awBeIywaNccyWZv-50">
          <mxGeometry y="43" width="69" height="7" as="geometry" />
        </mxCell>
        <mxCell id="8Xgg-awBeIywaNccyWZv-60" value="" style="shape=partialRectangle;html=1;whiteSpace=wrap;connectable=0;strokeColor=inherit;overflow=hidden;fillColor=none;top=0;left=0;bottom=0;right=0;pointerEvents=1;fontSize=16;" vertex="1" parent="8Xgg-awBeIywaNccyWZv-59">
          <mxGeometry width="23" height="7" as="geometry">
            <mxRectangle width="23" height="7" as="alternateBounds" />
          </mxGeometry>
        </mxCell>
        <mxCell id="8Xgg-awBeIywaNccyWZv-61" value="" style="shape=partialRectangle;html=1;whiteSpace=wrap;connectable=0;strokeColor=inherit;overflow=hidden;fillColor=none;top=0;left=0;bottom=0;right=0;pointerEvents=1;fontSize=16;" vertex="1" parent="8Xgg-awBeIywaNccyWZv-59">
          <mxGeometry x="23" width="23" height="7" as="geometry">
            <mxRectangle width="23" height="7" as="alternateBounds" />
          </mxGeometry>
        </mxCell>
        <mxCell id="8Xgg-awBeIywaNccyWZv-62" value="" style="shape=partialRectangle;html=1;whiteSpace=wrap;connectable=0;strokeColor=inherit;overflow=hidden;fillColor=none;top=0;left=0;bottom=0;right=0;pointerEvents=1;fontSize=16;" vertex="1" parent="8Xgg-awBeIywaNccyWZv-59">
          <mxGeometry x="46" width="23" height="7" as="geometry">
            <mxRectangle width="23" height="7" as="alternateBounds" />
          </mxGeometry>
        </mxCell>
        <mxCell id="8Xgg-awBeIywaNccyWZv-63" value="Claim" style="shape=table;startSize=30;container=1;collapsible=0;childLayout=tableLayout;strokeColor=default;fontSize=16;" vertex="1" parent="1">
          <mxGeometry x="1180" y="1430" width="69" height="50" as="geometry" />
        </mxCell>
        <mxCell id="8Xgg-awBeIywaNccyWZv-64" value="" style="shape=tableRow;horizontal=0;startSize=0;swimlaneHead=0;swimlaneBody=0;strokeColor=inherit;top=0;left=0;bottom=0;right=0;collapsible=0;dropTarget=0;fillColor=none;points=[[0,0.5],[1,0.5]];portConstraint=eastwest;fontSize=16;" vertex="1" parent="8Xgg-awBeIywaNccyWZv-63">
          <mxGeometry y="30" width="69" height="7" as="geometry" />
        </mxCell>
        <mxCell id="8Xgg-awBeIywaNccyWZv-65" value="" style="shape=partialRectangle;html=1;whiteSpace=wrap;connectable=0;strokeColor=inherit;overflow=hidden;fillColor=none;top=0;left=0;bottom=0;right=0;pointerEvents=1;fontSize=16;" vertex="1" parent="8Xgg-awBeIywaNccyWZv-64">
          <mxGeometry width="23" height="7" as="geometry">
            <mxRectangle width="23" height="7" as="alternateBounds" />
          </mxGeometry>
        </mxCell>
        <mxCell id="8Xgg-awBeIywaNccyWZv-66" value="" style="shape=partialRectangle;html=1;whiteSpace=wrap;connectable=0;strokeColor=inherit;overflow=hidden;fillColor=none;top=0;left=0;bottom=0;right=0;pointerEvents=1;fontSize=16;" vertex="1" parent="8Xgg-awBeIywaNccyWZv-64">
          <mxGeometry x="23" width="23" height="7" as="geometry">
            <mxRectangle width="23" height="7" as="alternateBounds" />
          </mxGeometry>
        </mxCell>
        <mxCell id="8Xgg-awBeIywaNccyWZv-67" value="" style="shape=partialRectangle;html=1;whiteSpace=wrap;connectable=0;strokeColor=inherit;overflow=hidden;fillColor=none;top=0;left=0;bottom=0;right=0;pointerEvents=1;fontSize=16;" vertex="1" parent="8Xgg-awBeIywaNccyWZv-64">
          <mxGeometry x="46" width="23" height="7" as="geometry">
            <mxRectangle width="23" height="7" as="alternateBounds" />
          </mxGeometry>
        </mxCell>
        <mxCell id="8Xgg-awBeIywaNccyWZv-68" value="" style="shape=tableRow;horizontal=0;startSize=0;swimlaneHead=0;swimlaneBody=0;strokeColor=inherit;top=0;left=0;bottom=0;right=0;collapsible=0;dropTarget=0;fillColor=none;points=[[0,0.5],[1,0.5]];portConstraint=eastwest;fontSize=16;" vertex="1" parent="8Xgg-awBeIywaNccyWZv-63">
          <mxGeometry y="37" width="69" height="6" as="geometry" />
        </mxCell>
        <mxCell id="8Xgg-awBeIywaNccyWZv-69" value="" style="shape=partialRectangle;html=1;whiteSpace=wrap;connectable=0;strokeColor=inherit;overflow=hidden;fillColor=none;top=0;left=0;bottom=0;right=0;pointerEvents=1;fontSize=16;" vertex="1" parent="8Xgg-awBeIywaNccyWZv-68">
          <mxGeometry width="23" height="6" as="geometry">
            <mxRectangle width="23" height="6" as="alternateBounds" />
          </mxGeometry>
        </mxCell>
        <mxCell id="8Xgg-awBeIywaNccyWZv-70" value="" style="shape=partialRectangle;html=1;whiteSpace=wrap;connectable=0;strokeColor=inherit;overflow=hidden;fillColor=none;top=0;left=0;bottom=0;right=0;pointerEvents=1;fontSize=16;" vertex="1" parent="8Xgg-awBeIywaNccyWZv-68">
          <mxGeometry x="23" width="23" height="6" as="geometry">
            <mxRectangle width="23" height="6" as="alternateBounds" />
          </mxGeometry>
        </mxCell>
        <mxCell id="8Xgg-awBeIywaNccyWZv-71" value="" style="shape=partialRectangle;html=1;whiteSpace=wrap;connectable=0;strokeColor=inherit;overflow=hidden;fillColor=none;top=0;left=0;bottom=0;right=0;pointerEvents=1;fontSize=16;" vertex="1" parent="8Xgg-awBeIywaNccyWZv-68">
          <mxGeometry x="46" width="23" height="6" as="geometry">
            <mxRectangle width="23" height="6" as="alternateBounds" />
          </mxGeometry>
        </mxCell>
        <mxCell id="8Xgg-awBeIywaNccyWZv-72" value="" style="shape=tableRow;horizontal=0;startSize=0;swimlaneHead=0;swimlaneBody=0;strokeColor=inherit;top=0;left=0;bottom=0;right=0;collapsible=0;dropTarget=0;fillColor=none;points=[[0,0.5],[1,0.5]];portConstraint=eastwest;fontSize=16;" vertex="1" parent="8Xgg-awBeIywaNccyWZv-63">
          <mxGeometry y="43" width="69" height="7" as="geometry" />
        </mxCell>
        <mxCell id="8Xgg-awBeIywaNccyWZv-73" value="" style="shape=partialRectangle;html=1;whiteSpace=wrap;connectable=0;strokeColor=inherit;overflow=hidden;fillColor=none;top=0;left=0;bottom=0;right=0;pointerEvents=1;fontSize=16;" vertex="1" parent="8Xgg-awBeIywaNccyWZv-72">
          <mxGeometry width="23" height="7" as="geometry">
            <mxRectangle width="23" height="7" as="alternateBounds" />
          </mxGeometry>
        </mxCell>
        <mxCell id="8Xgg-awBeIywaNccyWZv-74" value="" style="shape=partialRectangle;html=1;whiteSpace=wrap;connectable=0;strokeColor=inherit;overflow=hidden;fillColor=none;top=0;left=0;bottom=0;right=0;pointerEvents=1;fontSize=16;" vertex="1" parent="8Xgg-awBeIywaNccyWZv-72">
          <mxGeometry x="23" width="23" height="7" as="geometry">
            <mxRectangle width="23" height="7" as="alternateBounds" />
          </mxGeometry>
        </mxCell>
        <mxCell id="8Xgg-awBeIywaNccyWZv-75" value="" style="shape=partialRectangle;html=1;whiteSpace=wrap;connectable=0;strokeColor=inherit;overflow=hidden;fillColor=none;top=0;left=0;bottom=0;right=0;pointerEvents=1;fontSize=16;" vertex="1" parent="8Xgg-awBeIywaNccyWZv-72">
          <mxGeometry x="46" width="23" height="7" as="geometry">
            <mxRectangle width="23" height="7" as="alternateBounds" />
          </mxGeometry>
        </mxCell>
        <mxCell id="8Xgg-awBeIywaNccyWZv-76" value="Customer" style="shape=table;startSize=30;container=1;collapsible=0;childLayout=tableLayout;strokeColor=default;fontSize=16;" vertex="1" parent="1">
          <mxGeometry x="1084.75" y="1430" width="69" height="50" as="geometry" />
        </mxCell>
        <mxCell id="8Xgg-awBeIywaNccyWZv-77" value="" style="shape=tableRow;horizontal=0;startSize=0;swimlaneHead=0;swimlaneBody=0;strokeColor=inherit;top=0;left=0;bottom=0;right=0;collapsible=0;dropTarget=0;fillColor=none;points=[[0,0.5],[1,0.5]];portConstraint=eastwest;fontSize=16;" vertex="1" parent="8Xgg-awBeIywaNccyWZv-76">
          <mxGeometry y="30" width="69" height="7" as="geometry" />
        </mxCell>
        <mxCell id="8Xgg-awBeIywaNccyWZv-78" value="" style="shape=partialRectangle;html=1;whiteSpace=wrap;connectable=0;strokeColor=inherit;overflow=hidden;fillColor=none;top=0;left=0;bottom=0;right=0;pointerEvents=1;fontSize=16;" vertex="1" parent="8Xgg-awBeIywaNccyWZv-77">
          <mxGeometry width="23" height="7" as="geometry">
            <mxRectangle width="23" height="7" as="alternateBounds" />
          </mxGeometry>
        </mxCell>
        <mxCell id="8Xgg-awBeIywaNccyWZv-79" value="" style="shape=partialRectangle;html=1;whiteSpace=wrap;connectable=0;strokeColor=inherit;overflow=hidden;fillColor=none;top=0;left=0;bottom=0;right=0;pointerEvents=1;fontSize=16;" vertex="1" parent="8Xgg-awBeIywaNccyWZv-77">
          <mxGeometry x="23" width="23" height="7" as="geometry">
            <mxRectangle width="23" height="7" as="alternateBounds" />
          </mxGeometry>
        </mxCell>
        <mxCell id="8Xgg-awBeIywaNccyWZv-80" value="" style="shape=partialRectangle;html=1;whiteSpace=wrap;connectable=0;strokeColor=inherit;overflow=hidden;fillColor=none;top=0;left=0;bottom=0;right=0;pointerEvents=1;fontSize=16;" vertex="1" parent="8Xgg-awBeIywaNccyWZv-77">
          <mxGeometry x="46" width="23" height="7" as="geometry">
            <mxRectangle width="23" height="7" as="alternateBounds" />
          </mxGeometry>
        </mxCell>
        <mxCell id="8Xgg-awBeIywaNccyWZv-81" value="" style="shape=tableRow;horizontal=0;startSize=0;swimlaneHead=0;swimlaneBody=0;strokeColor=inherit;top=0;left=0;bottom=0;right=0;collapsible=0;dropTarget=0;fillColor=none;points=[[0,0.5],[1,0.5]];portConstraint=eastwest;fontSize=16;" vertex="1" parent="8Xgg-awBeIywaNccyWZv-76">
          <mxGeometry y="37" width="69" height="6" as="geometry" />
        </mxCell>
        <mxCell id="8Xgg-awBeIywaNccyWZv-82" value="" style="shape=partialRectangle;html=1;whiteSpace=wrap;connectable=0;strokeColor=inherit;overflow=hidden;fillColor=none;top=0;left=0;bottom=0;right=0;pointerEvents=1;fontSize=16;" vertex="1" parent="8Xgg-awBeIywaNccyWZv-81">
          <mxGeometry width="23" height="6" as="geometry">
            <mxRectangle width="23" height="6" as="alternateBounds" />
          </mxGeometry>
        </mxCell>
        <mxCell id="8Xgg-awBeIywaNccyWZv-83" value="" style="shape=partialRectangle;html=1;whiteSpace=wrap;connectable=0;strokeColor=inherit;overflow=hidden;fillColor=none;top=0;left=0;bottom=0;right=0;pointerEvents=1;fontSize=16;" vertex="1" parent="8Xgg-awBeIywaNccyWZv-81">
          <mxGeometry x="23" width="23" height="6" as="geometry">
            <mxRectangle width="23" height="6" as="alternateBounds" />
          </mxGeometry>
        </mxCell>
        <mxCell id="8Xgg-awBeIywaNccyWZv-84" value="" style="shape=partialRectangle;html=1;whiteSpace=wrap;connectable=0;strokeColor=inherit;overflow=hidden;fillColor=none;top=0;left=0;bottom=0;right=0;pointerEvents=1;fontSize=16;" vertex="1" parent="8Xgg-awBeIywaNccyWZv-81">
          <mxGeometry x="46" width="23" height="6" as="geometry">
            <mxRectangle width="23" height="6" as="alternateBounds" />
          </mxGeometry>
        </mxCell>
        <mxCell id="8Xgg-awBeIywaNccyWZv-85" value="" style="shape=tableRow;horizontal=0;startSize=0;swimlaneHead=0;swimlaneBody=0;strokeColor=inherit;top=0;left=0;bottom=0;right=0;collapsible=0;dropTarget=0;fillColor=none;points=[[0,0.5],[1,0.5]];portConstraint=eastwest;fontSize=16;" vertex="1" parent="8Xgg-awBeIywaNccyWZv-76">
          <mxGeometry y="43" width="69" height="7" as="geometry" />
        </mxCell>
        <mxCell id="8Xgg-awBeIywaNccyWZv-86" value="" style="shape=partialRectangle;html=1;whiteSpace=wrap;connectable=0;strokeColor=inherit;overflow=hidden;fillColor=none;top=0;left=0;bottom=0;right=0;pointerEvents=1;fontSize=16;" vertex="1" parent="8Xgg-awBeIywaNccyWZv-85">
          <mxGeometry width="23" height="7" as="geometry">
            <mxRectangle width="23" height="7" as="alternateBounds" />
          </mxGeometry>
        </mxCell>
        <mxCell id="8Xgg-awBeIywaNccyWZv-87" value="" style="shape=partialRectangle;html=1;whiteSpace=wrap;connectable=0;strokeColor=inherit;overflow=hidden;fillColor=none;top=0;left=0;bottom=0;right=0;pointerEvents=1;fontSize=16;" vertex="1" parent="8Xgg-awBeIywaNccyWZv-85">
          <mxGeometry x="23" width="23" height="7" as="geometry">
            <mxRectangle width="23" height="7" as="alternateBounds" />
          </mxGeometry>
        </mxCell>
        <mxCell id="8Xgg-awBeIywaNccyWZv-88" value="" style="shape=partialRectangle;html=1;whiteSpace=wrap;connectable=0;strokeColor=inherit;overflow=hidden;fillColor=none;top=0;left=0;bottom=0;right=0;pointerEvents=1;fontSize=16;" vertex="1" parent="8Xgg-awBeIywaNccyWZv-85">
          <mxGeometry x="46" width="23" height="7" as="geometry">
            <mxRectangle width="23" height="7" as="alternateBounds" />
          </mxGeometry>
        </mxCell>
        <mxCell id="8Xgg-awBeIywaNccyWZv-89" value="Policy" style="shape=table;startSize=30;container=1;collapsible=0;childLayout=tableLayout;strokeColor=default;fontSize=16;" vertex="1" parent="1">
          <mxGeometry x="988.25" y="1430" width="69" height="50" as="geometry" />
        </mxCell>
        <mxCell id="8Xgg-awBeIywaNccyWZv-90" value="" style="shape=tableRow;horizontal=0;startSize=0;swimlaneHead=0;swimlaneBody=0;strokeColor=inherit;top=0;left=0;bottom=0;right=0;collapsible=0;dropTarget=0;fillColor=none;points=[[0,0.5],[1,0.5]];portConstraint=eastwest;fontSize=16;" vertex="1" parent="8Xgg-awBeIywaNccyWZv-89">
          <mxGeometry y="30" width="69" height="7" as="geometry" />
        </mxCell>
        <mxCell id="8Xgg-awBeIywaNccyWZv-91" value="" style="shape=partialRectangle;html=1;whiteSpace=wrap;connectable=0;strokeColor=inherit;overflow=hidden;fillColor=none;top=0;left=0;bottom=0;right=0;pointerEvents=1;fontSize=16;" vertex="1" parent="8Xgg-awBeIywaNccyWZv-90">
          <mxGeometry width="23" height="7" as="geometry">
            <mxRectangle width="23" height="7" as="alternateBounds" />
          </mxGeometry>
        </mxCell>
        <mxCell id="8Xgg-awBeIywaNccyWZv-92" value="" style="shape=partialRectangle;html=1;whiteSpace=wrap;connectable=0;strokeColor=inherit;overflow=hidden;fillColor=none;top=0;left=0;bottom=0;right=0;pointerEvents=1;fontSize=16;" vertex="1" parent="8Xgg-awBeIywaNccyWZv-90">
          <mxGeometry x="23" width="23" height="7" as="geometry">
            <mxRectangle width="23" height="7" as="alternateBounds" />
          </mxGeometry>
        </mxCell>
        <mxCell id="8Xgg-awBeIywaNccyWZv-93" value="" style="shape=partialRectangle;html=1;whiteSpace=wrap;connectable=0;strokeColor=inherit;overflow=hidden;fillColor=none;top=0;left=0;bottom=0;right=0;pointerEvents=1;fontSize=16;" vertex="1" parent="8Xgg-awBeIywaNccyWZv-90">
          <mxGeometry x="46" width="23" height="7" as="geometry">
            <mxRectangle width="23" height="7" as="alternateBounds" />
          </mxGeometry>
        </mxCell>
        <mxCell id="8Xgg-awBeIywaNccyWZv-94" value="" style="shape=tableRow;horizontal=0;startSize=0;swimlaneHead=0;swimlaneBody=0;strokeColor=inherit;top=0;left=0;bottom=0;right=0;collapsible=0;dropTarget=0;fillColor=none;points=[[0,0.5],[1,0.5]];portConstraint=eastwest;fontSize=16;" vertex="1" parent="8Xgg-awBeIywaNccyWZv-89">
          <mxGeometry y="37" width="69" height="6" as="geometry" />
        </mxCell>
        <mxCell id="8Xgg-awBeIywaNccyWZv-95" value="" style="shape=partialRectangle;html=1;whiteSpace=wrap;connectable=0;strokeColor=inherit;overflow=hidden;fillColor=none;top=0;left=0;bottom=0;right=0;pointerEvents=1;fontSize=16;" vertex="1" parent="8Xgg-awBeIywaNccyWZv-94">
          <mxGeometry width="23" height="6" as="geometry">
            <mxRectangle width="23" height="6" as="alternateBounds" />
          </mxGeometry>
        </mxCell>
        <mxCell id="8Xgg-awBeIywaNccyWZv-96" value="" style="shape=partialRectangle;html=1;whiteSpace=wrap;connectable=0;strokeColor=inherit;overflow=hidden;fillColor=none;top=0;left=0;bottom=0;right=0;pointerEvents=1;fontSize=16;" vertex="1" parent="8Xgg-awBeIywaNccyWZv-94">
          <mxGeometry x="23" width="23" height="6" as="geometry">
            <mxRectangle width="23" height="6" as="alternateBounds" />
          </mxGeometry>
        </mxCell>
        <mxCell id="8Xgg-awBeIywaNccyWZv-97" value="" style="shape=partialRectangle;html=1;whiteSpace=wrap;connectable=0;strokeColor=inherit;overflow=hidden;fillColor=none;top=0;left=0;bottom=0;right=0;pointerEvents=1;fontSize=16;" vertex="1" parent="8Xgg-awBeIywaNccyWZv-94">
          <mxGeometry x="46" width="23" height="6" as="geometry">
            <mxRectangle width="23" height="6" as="alternateBounds" />
          </mxGeometry>
        </mxCell>
        <mxCell id="8Xgg-awBeIywaNccyWZv-98" value="" style="shape=tableRow;horizontal=0;startSize=0;swimlaneHead=0;swimlaneBody=0;strokeColor=inherit;top=0;left=0;bottom=0;right=0;collapsible=0;dropTarget=0;fillColor=none;points=[[0,0.5],[1,0.5]];portConstraint=eastwest;fontSize=16;" vertex="1" parent="8Xgg-awBeIywaNccyWZv-89">
          <mxGeometry y="43" width="69" height="7" as="geometry" />
        </mxCell>
        <mxCell id="8Xgg-awBeIywaNccyWZv-99" value="" style="shape=partialRectangle;html=1;whiteSpace=wrap;connectable=0;strokeColor=inherit;overflow=hidden;fillColor=none;top=0;left=0;bottom=0;right=0;pointerEvents=1;fontSize=16;" vertex="1" parent="8Xgg-awBeIywaNccyWZv-98">
          <mxGeometry width="23" height="7" as="geometry">
            <mxRectangle width="23" height="7" as="alternateBounds" />
          </mxGeometry>
        </mxCell>
        <mxCell id="8Xgg-awBeIywaNccyWZv-100" value="" style="shape=partialRectangle;html=1;whiteSpace=wrap;connectable=0;strokeColor=inherit;overflow=hidden;fillColor=none;top=0;left=0;bottom=0;right=0;pointerEvents=1;fontSize=16;" vertex="1" parent="8Xgg-awBeIywaNccyWZv-98">
          <mxGeometry x="23" width="23" height="7" as="geometry">
            <mxRectangle width="23" height="7" as="alternateBounds" />
          </mxGeometry>
        </mxCell>
        <mxCell id="8Xgg-awBeIywaNccyWZv-101" value="" style="shape=partialRectangle;html=1;whiteSpace=wrap;connectable=0;strokeColor=inherit;overflow=hidden;fillColor=none;top=0;left=0;bottom=0;right=0;pointerEvents=1;fontSize=16;" vertex="1" parent="8Xgg-awBeIywaNccyWZv-98">
          <mxGeometry x="46" width="23" height="7" as="geometry">
            <mxRectangle width="23" height="7" as="alternateBounds" />
          </mxGeometry>
        </mxCell>
        <mxCell id="8Xgg-awBeIywaNccyWZv-167" value="etc" style="shape=table;startSize=30;container=1;collapsible=0;childLayout=tableLayout;strokeColor=default;fontSize=16;" vertex="1" parent="1">
          <mxGeometry x="1181.25" y="1510" width="69" height="50" as="geometry" />
        </mxCell>
        <mxCell id="8Xgg-awBeIywaNccyWZv-168" value="" style="shape=tableRow;horizontal=0;startSize=0;swimlaneHead=0;swimlaneBody=0;strokeColor=inherit;top=0;left=0;bottom=0;right=0;collapsible=0;dropTarget=0;fillColor=none;points=[[0,0.5],[1,0.5]];portConstraint=eastwest;fontSize=16;" vertex="1" parent="8Xgg-awBeIywaNccyWZv-167">
          <mxGeometry y="30" width="69" height="7" as="geometry" />
        </mxCell>
        <mxCell id="8Xgg-awBeIywaNccyWZv-169" value="" style="shape=partialRectangle;html=1;whiteSpace=wrap;connectable=0;strokeColor=inherit;overflow=hidden;fillColor=none;top=0;left=0;bottom=0;right=0;pointerEvents=1;fontSize=16;" vertex="1" parent="8Xgg-awBeIywaNccyWZv-168">
          <mxGeometry width="23" height="7" as="geometry">
            <mxRectangle width="23" height="7" as="alternateBounds" />
          </mxGeometry>
        </mxCell>
        <mxCell id="8Xgg-awBeIywaNccyWZv-170" value="" style="shape=partialRectangle;html=1;whiteSpace=wrap;connectable=0;strokeColor=inherit;overflow=hidden;fillColor=none;top=0;left=0;bottom=0;right=0;pointerEvents=1;fontSize=16;" vertex="1" parent="8Xgg-awBeIywaNccyWZv-168">
          <mxGeometry x="23" width="23" height="7" as="geometry">
            <mxRectangle width="23" height="7" as="alternateBounds" />
          </mxGeometry>
        </mxCell>
        <mxCell id="8Xgg-awBeIywaNccyWZv-171" value="" style="shape=partialRectangle;html=1;whiteSpace=wrap;connectable=0;strokeColor=inherit;overflow=hidden;fillColor=none;top=0;left=0;bottom=0;right=0;pointerEvents=1;fontSize=16;" vertex="1" parent="8Xgg-awBeIywaNccyWZv-168">
          <mxGeometry x="46" width="23" height="7" as="geometry">
            <mxRectangle width="23" height="7" as="alternateBounds" />
          </mxGeometry>
        </mxCell>
        <mxCell id="8Xgg-awBeIywaNccyWZv-172" value="" style="shape=tableRow;horizontal=0;startSize=0;swimlaneHead=0;swimlaneBody=0;strokeColor=inherit;top=0;left=0;bottom=0;right=0;collapsible=0;dropTarget=0;fillColor=none;points=[[0,0.5],[1,0.5]];portConstraint=eastwest;fontSize=16;" vertex="1" parent="8Xgg-awBeIywaNccyWZv-167">
          <mxGeometry y="37" width="69" height="6" as="geometry" />
        </mxCell>
        <mxCell id="8Xgg-awBeIywaNccyWZv-173" value="" style="shape=partialRectangle;html=1;whiteSpace=wrap;connectable=0;strokeColor=inherit;overflow=hidden;fillColor=none;top=0;left=0;bottom=0;right=0;pointerEvents=1;fontSize=16;" vertex="1" parent="8Xgg-awBeIywaNccyWZv-172">
          <mxGeometry width="23" height="6" as="geometry">
            <mxRectangle width="23" height="6" as="alternateBounds" />
          </mxGeometry>
        </mxCell>
        <mxCell id="8Xgg-awBeIywaNccyWZv-174" value="" style="shape=partialRectangle;html=1;whiteSpace=wrap;connectable=0;strokeColor=inherit;overflow=hidden;fillColor=none;top=0;left=0;bottom=0;right=0;pointerEvents=1;fontSize=16;" vertex="1" parent="8Xgg-awBeIywaNccyWZv-172">
          <mxGeometry x="23" width="23" height="6" as="geometry">
            <mxRectangle width="23" height="6" as="alternateBounds" />
          </mxGeometry>
        </mxCell>
        <mxCell id="8Xgg-awBeIywaNccyWZv-175" value="" style="shape=partialRectangle;html=1;whiteSpace=wrap;connectable=0;strokeColor=inherit;overflow=hidden;fillColor=none;top=0;left=0;bottom=0;right=0;pointerEvents=1;fontSize=16;" vertex="1" parent="8Xgg-awBeIywaNccyWZv-172">
          <mxGeometry x="46" width="23" height="6" as="geometry">
            <mxRectangle width="23" height="6" as="alternateBounds" />
          </mxGeometry>
        </mxCell>
        <mxCell id="8Xgg-awBeIywaNccyWZv-176" value="" style="shape=tableRow;horizontal=0;startSize=0;swimlaneHead=0;swimlaneBody=0;strokeColor=inherit;top=0;left=0;bottom=0;right=0;collapsible=0;dropTarget=0;fillColor=none;points=[[0,0.5],[1,0.5]];portConstraint=eastwest;fontSize=16;" vertex="1" parent="8Xgg-awBeIywaNccyWZv-167">
          <mxGeometry y="43" width="69" height="7" as="geometry" />
        </mxCell>
        <mxCell id="8Xgg-awBeIywaNccyWZv-177" value="" style="shape=partialRectangle;html=1;whiteSpace=wrap;connectable=0;strokeColor=inherit;overflow=hidden;fillColor=none;top=0;left=0;bottom=0;right=0;pointerEvents=1;fontSize=16;" vertex="1" parent="8Xgg-awBeIywaNccyWZv-176">
          <mxGeometry width="23" height="7" as="geometry">
            <mxRectangle width="23" height="7" as="alternateBounds" />
          </mxGeometry>
        </mxCell>
        <mxCell id="8Xgg-awBeIywaNccyWZv-178" value="" style="shape=partialRectangle;html=1;whiteSpace=wrap;connectable=0;strokeColor=inherit;overflow=hidden;fillColor=none;top=0;left=0;bottom=0;right=0;pointerEvents=1;fontSize=16;" vertex="1" parent="8Xgg-awBeIywaNccyWZv-176">
          <mxGeometry x="23" width="23" height="7" as="geometry">
            <mxRectangle width="23" height="7" as="alternateBounds" />
          </mxGeometry>
        </mxCell>
        <mxCell id="8Xgg-awBeIywaNccyWZv-179" value="" style="shape=partialRectangle;html=1;whiteSpace=wrap;connectable=0;strokeColor=inherit;overflow=hidden;fillColor=none;top=0;left=0;bottom=0;right=0;pointerEvents=1;fontSize=16;" vertex="1" parent="8Xgg-awBeIywaNccyWZv-176">
          <mxGeometry x="46" width="23" height="7" as="geometry">
            <mxRectangle width="23" height="7" as="alternateBounds" />
          </mxGeometry>
        </mxCell>
        <mxCell id="8Xgg-awBeIywaNccyWZv-258" value="dim_y" style="shape=table;startSize=30;container=1;collapsible=0;childLayout=tableLayout;strokeColor=default;fontSize=16;" vertex="1" parent="1">
          <mxGeometry x="1480" y="1520" width="69" height="50" as="geometry" />
        </mxCell>
        <mxCell id="8Xgg-awBeIywaNccyWZv-259" value="" style="shape=tableRow;horizontal=0;startSize=0;swimlaneHead=0;swimlaneBody=0;strokeColor=inherit;top=0;left=0;bottom=0;right=0;collapsible=0;dropTarget=0;fillColor=none;points=[[0,0.5],[1,0.5]];portConstraint=eastwest;fontSize=16;" vertex="1" parent="8Xgg-awBeIywaNccyWZv-258">
          <mxGeometry y="30" width="69" height="7" as="geometry" />
        </mxCell>
        <mxCell id="8Xgg-awBeIywaNccyWZv-260" value="" style="shape=partialRectangle;html=1;whiteSpace=wrap;connectable=0;strokeColor=inherit;overflow=hidden;fillColor=none;top=0;left=0;bottom=0;right=0;pointerEvents=1;fontSize=16;" vertex="1" parent="8Xgg-awBeIywaNccyWZv-259">
          <mxGeometry width="23" height="7" as="geometry">
            <mxRectangle width="23" height="7" as="alternateBounds" />
          </mxGeometry>
        </mxCell>
        <mxCell id="8Xgg-awBeIywaNccyWZv-261" value="" style="shape=partialRectangle;html=1;whiteSpace=wrap;connectable=0;strokeColor=inherit;overflow=hidden;fillColor=none;top=0;left=0;bottom=0;right=0;pointerEvents=1;fontSize=16;" vertex="1" parent="8Xgg-awBeIywaNccyWZv-259">
          <mxGeometry x="23" width="23" height="7" as="geometry">
            <mxRectangle width="23" height="7" as="alternateBounds" />
          </mxGeometry>
        </mxCell>
        <mxCell id="8Xgg-awBeIywaNccyWZv-262" value="" style="shape=partialRectangle;html=1;whiteSpace=wrap;connectable=0;strokeColor=inherit;overflow=hidden;fillColor=none;top=0;left=0;bottom=0;right=0;pointerEvents=1;fontSize=16;" vertex="1" parent="8Xgg-awBeIywaNccyWZv-259">
          <mxGeometry x="46" width="23" height="7" as="geometry">
            <mxRectangle width="23" height="7" as="alternateBounds" />
          </mxGeometry>
        </mxCell>
        <mxCell id="8Xgg-awBeIywaNccyWZv-263" value="" style="shape=tableRow;horizontal=0;startSize=0;swimlaneHead=0;swimlaneBody=0;strokeColor=inherit;top=0;left=0;bottom=0;right=0;collapsible=0;dropTarget=0;fillColor=none;points=[[0,0.5],[1,0.5]];portConstraint=eastwest;fontSize=16;" vertex="1" parent="8Xgg-awBeIywaNccyWZv-258">
          <mxGeometry y="37" width="69" height="6" as="geometry" />
        </mxCell>
        <mxCell id="8Xgg-awBeIywaNccyWZv-264" value="" style="shape=partialRectangle;html=1;whiteSpace=wrap;connectable=0;strokeColor=inherit;overflow=hidden;fillColor=none;top=0;left=0;bottom=0;right=0;pointerEvents=1;fontSize=16;" vertex="1" parent="8Xgg-awBeIywaNccyWZv-263">
          <mxGeometry width="23" height="6" as="geometry">
            <mxRectangle width="23" height="6" as="alternateBounds" />
          </mxGeometry>
        </mxCell>
        <mxCell id="8Xgg-awBeIywaNccyWZv-265" value="" style="shape=partialRectangle;html=1;whiteSpace=wrap;connectable=0;strokeColor=inherit;overflow=hidden;fillColor=none;top=0;left=0;bottom=0;right=0;pointerEvents=1;fontSize=16;" vertex="1" parent="8Xgg-awBeIywaNccyWZv-263">
          <mxGeometry x="23" width="23" height="6" as="geometry">
            <mxRectangle width="23" height="6" as="alternateBounds" />
          </mxGeometry>
        </mxCell>
        <mxCell id="8Xgg-awBeIywaNccyWZv-266" value="" style="shape=partialRectangle;html=1;whiteSpace=wrap;connectable=0;strokeColor=inherit;overflow=hidden;fillColor=none;top=0;left=0;bottom=0;right=0;pointerEvents=1;fontSize=16;" vertex="1" parent="8Xgg-awBeIywaNccyWZv-263">
          <mxGeometry x="46" width="23" height="6" as="geometry">
            <mxRectangle width="23" height="6" as="alternateBounds" />
          </mxGeometry>
        </mxCell>
        <mxCell id="8Xgg-awBeIywaNccyWZv-267" value="" style="shape=tableRow;horizontal=0;startSize=0;swimlaneHead=0;swimlaneBody=0;strokeColor=inherit;top=0;left=0;bottom=0;right=0;collapsible=0;dropTarget=0;fillColor=none;points=[[0,0.5],[1,0.5]];portConstraint=eastwest;fontSize=16;" vertex="1" parent="8Xgg-awBeIywaNccyWZv-258">
          <mxGeometry y="43" width="69" height="7" as="geometry" />
        </mxCell>
        <mxCell id="8Xgg-awBeIywaNccyWZv-268" value="" style="shape=partialRectangle;html=1;whiteSpace=wrap;connectable=0;strokeColor=inherit;overflow=hidden;fillColor=none;top=0;left=0;bottom=0;right=0;pointerEvents=1;fontSize=16;" vertex="1" parent="8Xgg-awBeIywaNccyWZv-267">
          <mxGeometry width="23" height="7" as="geometry">
            <mxRectangle width="23" height="7" as="alternateBounds" />
          </mxGeometry>
        </mxCell>
        <mxCell id="8Xgg-awBeIywaNccyWZv-269" value="" style="shape=partialRectangle;html=1;whiteSpace=wrap;connectable=0;strokeColor=inherit;overflow=hidden;fillColor=none;top=0;left=0;bottom=0;right=0;pointerEvents=1;fontSize=16;" vertex="1" parent="8Xgg-awBeIywaNccyWZv-267">
          <mxGeometry x="23" width="23" height="7" as="geometry">
            <mxRectangle width="23" height="7" as="alternateBounds" />
          </mxGeometry>
        </mxCell>
        <mxCell id="8Xgg-awBeIywaNccyWZv-270" value="" style="shape=partialRectangle;html=1;whiteSpace=wrap;connectable=0;strokeColor=inherit;overflow=hidden;fillColor=none;top=0;left=0;bottom=0;right=0;pointerEvents=1;fontSize=16;" vertex="1" parent="8Xgg-awBeIywaNccyWZv-267">
          <mxGeometry x="46" width="23" height="7" as="geometry">
            <mxRectangle width="23" height="7" as="alternateBounds" />
          </mxGeometry>
        </mxCell>
        <mxCell id="8Xgg-awBeIywaNccyWZv-271" value="dim_x" style="shape=table;startSize=30;container=1;collapsible=0;childLayout=tableLayout;strokeColor=default;fontSize=16;" vertex="1" parent="1">
          <mxGeometry x="1380" y="1520" width="69" height="50" as="geometry" />
        </mxCell>
        <mxCell id="8Xgg-awBeIywaNccyWZv-272" value="" style="shape=tableRow;horizontal=0;startSize=0;swimlaneHead=0;swimlaneBody=0;strokeColor=inherit;top=0;left=0;bottom=0;right=0;collapsible=0;dropTarget=0;fillColor=none;points=[[0,0.5],[1,0.5]];portConstraint=eastwest;fontSize=16;" vertex="1" parent="8Xgg-awBeIywaNccyWZv-271">
          <mxGeometry y="30" width="69" height="7" as="geometry" />
        </mxCell>
        <mxCell id="8Xgg-awBeIywaNccyWZv-273" value="" style="shape=partialRectangle;html=1;whiteSpace=wrap;connectable=0;strokeColor=inherit;overflow=hidden;fillColor=none;top=0;left=0;bottom=0;right=0;pointerEvents=1;fontSize=16;" vertex="1" parent="8Xgg-awBeIywaNccyWZv-272">
          <mxGeometry width="23" height="7" as="geometry">
            <mxRectangle width="23" height="7" as="alternateBounds" />
          </mxGeometry>
        </mxCell>
        <mxCell id="8Xgg-awBeIywaNccyWZv-274" value="" style="shape=partialRectangle;html=1;whiteSpace=wrap;connectable=0;strokeColor=inherit;overflow=hidden;fillColor=none;top=0;left=0;bottom=0;right=0;pointerEvents=1;fontSize=16;" vertex="1" parent="8Xgg-awBeIywaNccyWZv-272">
          <mxGeometry x="23" width="23" height="7" as="geometry">
            <mxRectangle width="23" height="7" as="alternateBounds" />
          </mxGeometry>
        </mxCell>
        <mxCell id="8Xgg-awBeIywaNccyWZv-275" value="" style="shape=partialRectangle;html=1;whiteSpace=wrap;connectable=0;strokeColor=inherit;overflow=hidden;fillColor=none;top=0;left=0;bottom=0;right=0;pointerEvents=1;fontSize=16;" vertex="1" parent="8Xgg-awBeIywaNccyWZv-272">
          <mxGeometry x="46" width="23" height="7" as="geometry">
            <mxRectangle width="23" height="7" as="alternateBounds" />
          </mxGeometry>
        </mxCell>
        <mxCell id="8Xgg-awBeIywaNccyWZv-276" value="" style="shape=tableRow;horizontal=0;startSize=0;swimlaneHead=0;swimlaneBody=0;strokeColor=inherit;top=0;left=0;bottom=0;right=0;collapsible=0;dropTarget=0;fillColor=none;points=[[0,0.5],[1,0.5]];portConstraint=eastwest;fontSize=16;" vertex="1" parent="8Xgg-awBeIywaNccyWZv-271">
          <mxGeometry y="37" width="69" height="6" as="geometry" />
        </mxCell>
        <mxCell id="8Xgg-awBeIywaNccyWZv-277" value="" style="shape=partialRectangle;html=1;whiteSpace=wrap;connectable=0;strokeColor=inherit;overflow=hidden;fillColor=none;top=0;left=0;bottom=0;right=0;pointerEvents=1;fontSize=16;" vertex="1" parent="8Xgg-awBeIywaNccyWZv-276">
          <mxGeometry width="23" height="6" as="geometry">
            <mxRectangle width="23" height="6" as="alternateBounds" />
          </mxGeometry>
        </mxCell>
        <mxCell id="8Xgg-awBeIywaNccyWZv-278" value="" style="shape=partialRectangle;html=1;whiteSpace=wrap;connectable=0;strokeColor=inherit;overflow=hidden;fillColor=none;top=0;left=0;bottom=0;right=0;pointerEvents=1;fontSize=16;" vertex="1" parent="8Xgg-awBeIywaNccyWZv-276">
          <mxGeometry x="23" width="23" height="6" as="geometry">
            <mxRectangle width="23" height="6" as="alternateBounds" />
          </mxGeometry>
        </mxCell>
        <mxCell id="8Xgg-awBeIywaNccyWZv-279" value="" style="shape=partialRectangle;html=1;whiteSpace=wrap;connectable=0;strokeColor=inherit;overflow=hidden;fillColor=none;top=0;left=0;bottom=0;right=0;pointerEvents=1;fontSize=16;" vertex="1" parent="8Xgg-awBeIywaNccyWZv-276">
          <mxGeometry x="46" width="23" height="6" as="geometry">
            <mxRectangle width="23" height="6" as="alternateBounds" />
          </mxGeometry>
        </mxCell>
        <mxCell id="8Xgg-awBeIywaNccyWZv-280" value="" style="shape=tableRow;horizontal=0;startSize=0;swimlaneHead=0;swimlaneBody=0;strokeColor=inherit;top=0;left=0;bottom=0;right=0;collapsible=0;dropTarget=0;fillColor=none;points=[[0,0.5],[1,0.5]];portConstraint=eastwest;fontSize=16;" vertex="1" parent="8Xgg-awBeIywaNccyWZv-271">
          <mxGeometry y="43" width="69" height="7" as="geometry" />
        </mxCell>
        <mxCell id="8Xgg-awBeIywaNccyWZv-281" value="" style="shape=partialRectangle;html=1;whiteSpace=wrap;connectable=0;strokeColor=inherit;overflow=hidden;fillColor=none;top=0;left=0;bottom=0;right=0;pointerEvents=1;fontSize=16;" vertex="1" parent="8Xgg-awBeIywaNccyWZv-280">
          <mxGeometry width="23" height="7" as="geometry">
            <mxRectangle width="23" height="7" as="alternateBounds" />
          </mxGeometry>
        </mxCell>
        <mxCell id="8Xgg-awBeIywaNccyWZv-282" value="" style="shape=partialRectangle;html=1;whiteSpace=wrap;connectable=0;strokeColor=inherit;overflow=hidden;fillColor=none;top=0;left=0;bottom=0;right=0;pointerEvents=1;fontSize=16;" vertex="1" parent="8Xgg-awBeIywaNccyWZv-280">
          <mxGeometry x="23" width="23" height="7" as="geometry">
            <mxRectangle width="23" height="7" as="alternateBounds" />
          </mxGeometry>
        </mxCell>
        <mxCell id="8Xgg-awBeIywaNccyWZv-283" value="" style="shape=partialRectangle;html=1;whiteSpace=wrap;connectable=0;strokeColor=inherit;overflow=hidden;fillColor=none;top=0;left=0;bottom=0;right=0;pointerEvents=1;fontSize=16;" vertex="1" parent="8Xgg-awBeIywaNccyWZv-280">
          <mxGeometry x="46" width="23" height="7" as="geometry">
            <mxRectangle width="23" height="7" as="alternateBounds" />
          </mxGeometry>
        </mxCell>
        <mxCell id="8Xgg-awBeIywaNccyWZv-284" value="dim_claim" style="shape=table;startSize=30;container=1;collapsible=0;childLayout=tableLayout;strokeColor=default;fontSize=12;" vertex="1" parent="1">
          <mxGeometry x="1570" y="1430" width="69" height="50" as="geometry" />
        </mxCell>
        <mxCell id="8Xgg-awBeIywaNccyWZv-285" value="" style="shape=tableRow;horizontal=0;startSize=0;swimlaneHead=0;swimlaneBody=0;strokeColor=inherit;top=0;left=0;bottom=0;right=0;collapsible=0;dropTarget=0;fillColor=none;points=[[0,0.5],[1,0.5]];portConstraint=eastwest;fontSize=16;" vertex="1" parent="8Xgg-awBeIywaNccyWZv-284">
          <mxGeometry y="30" width="69" height="7" as="geometry" />
        </mxCell>
        <mxCell id="8Xgg-awBeIywaNccyWZv-286" value="" style="shape=partialRectangle;html=1;whiteSpace=wrap;connectable=0;strokeColor=inherit;overflow=hidden;fillColor=none;top=0;left=0;bottom=0;right=0;pointerEvents=1;fontSize=16;" vertex="1" parent="8Xgg-awBeIywaNccyWZv-285">
          <mxGeometry width="23" height="7" as="geometry">
            <mxRectangle width="23" height="7" as="alternateBounds" />
          </mxGeometry>
        </mxCell>
        <mxCell id="8Xgg-awBeIywaNccyWZv-287" value="" style="shape=partialRectangle;html=1;whiteSpace=wrap;connectable=0;strokeColor=inherit;overflow=hidden;fillColor=none;top=0;left=0;bottom=0;right=0;pointerEvents=1;fontSize=16;" vertex="1" parent="8Xgg-awBeIywaNccyWZv-285">
          <mxGeometry x="23" width="23" height="7" as="geometry">
            <mxRectangle width="23" height="7" as="alternateBounds" />
          </mxGeometry>
        </mxCell>
        <mxCell id="8Xgg-awBeIywaNccyWZv-288" value="" style="shape=partialRectangle;html=1;whiteSpace=wrap;connectable=0;strokeColor=inherit;overflow=hidden;fillColor=none;top=0;left=0;bottom=0;right=0;pointerEvents=1;fontSize=16;" vertex="1" parent="8Xgg-awBeIywaNccyWZv-285">
          <mxGeometry x="46" width="23" height="7" as="geometry">
            <mxRectangle width="23" height="7" as="alternateBounds" />
          </mxGeometry>
        </mxCell>
        <mxCell id="8Xgg-awBeIywaNccyWZv-289" value="" style="shape=tableRow;horizontal=0;startSize=0;swimlaneHead=0;swimlaneBody=0;strokeColor=inherit;top=0;left=0;bottom=0;right=0;collapsible=0;dropTarget=0;fillColor=none;points=[[0,0.5],[1,0.5]];portConstraint=eastwest;fontSize=16;" vertex="1" parent="8Xgg-awBeIywaNccyWZv-284">
          <mxGeometry y="37" width="69" height="6" as="geometry" />
        </mxCell>
        <mxCell id="8Xgg-awBeIywaNccyWZv-290" value="" style="shape=partialRectangle;html=1;whiteSpace=wrap;connectable=0;strokeColor=inherit;overflow=hidden;fillColor=none;top=0;left=0;bottom=0;right=0;pointerEvents=1;fontSize=16;" vertex="1" parent="8Xgg-awBeIywaNccyWZv-289">
          <mxGeometry width="23" height="6" as="geometry">
            <mxRectangle width="23" height="6" as="alternateBounds" />
          </mxGeometry>
        </mxCell>
        <mxCell id="8Xgg-awBeIywaNccyWZv-291" value="" style="shape=partialRectangle;html=1;whiteSpace=wrap;connectable=0;strokeColor=inherit;overflow=hidden;fillColor=none;top=0;left=0;bottom=0;right=0;pointerEvents=1;fontSize=16;" vertex="1" parent="8Xgg-awBeIywaNccyWZv-289">
          <mxGeometry x="23" width="23" height="6" as="geometry">
            <mxRectangle width="23" height="6" as="alternateBounds" />
          </mxGeometry>
        </mxCell>
        <mxCell id="8Xgg-awBeIywaNccyWZv-292" value="" style="shape=partialRectangle;html=1;whiteSpace=wrap;connectable=0;strokeColor=inherit;overflow=hidden;fillColor=none;top=0;left=0;bottom=0;right=0;pointerEvents=1;fontSize=16;" vertex="1" parent="8Xgg-awBeIywaNccyWZv-289">
          <mxGeometry x="46" width="23" height="6" as="geometry">
            <mxRectangle width="23" height="6" as="alternateBounds" />
          </mxGeometry>
        </mxCell>
        <mxCell id="8Xgg-awBeIywaNccyWZv-293" value="" style="shape=tableRow;horizontal=0;startSize=0;swimlaneHead=0;swimlaneBody=0;strokeColor=inherit;top=0;left=0;bottom=0;right=0;collapsible=0;dropTarget=0;fillColor=none;points=[[0,0.5],[1,0.5]];portConstraint=eastwest;fontSize=16;" vertex="1" parent="8Xgg-awBeIywaNccyWZv-284">
          <mxGeometry y="43" width="69" height="7" as="geometry" />
        </mxCell>
        <mxCell id="8Xgg-awBeIywaNccyWZv-294" value="" style="shape=partialRectangle;html=1;whiteSpace=wrap;connectable=0;strokeColor=inherit;overflow=hidden;fillColor=none;top=0;left=0;bottom=0;right=0;pointerEvents=1;fontSize=16;" vertex="1" parent="8Xgg-awBeIywaNccyWZv-293">
          <mxGeometry width="23" height="7" as="geometry">
            <mxRectangle width="23" height="7" as="alternateBounds" />
          </mxGeometry>
        </mxCell>
        <mxCell id="8Xgg-awBeIywaNccyWZv-295" value="" style="shape=partialRectangle;html=1;whiteSpace=wrap;connectable=0;strokeColor=inherit;overflow=hidden;fillColor=none;top=0;left=0;bottom=0;right=0;pointerEvents=1;fontSize=16;" vertex="1" parent="8Xgg-awBeIywaNccyWZv-293">
          <mxGeometry x="23" width="23" height="7" as="geometry">
            <mxRectangle width="23" height="7" as="alternateBounds" />
          </mxGeometry>
        </mxCell>
        <mxCell id="8Xgg-awBeIywaNccyWZv-296" value="" style="shape=partialRectangle;html=1;whiteSpace=wrap;connectable=0;strokeColor=inherit;overflow=hidden;fillColor=none;top=0;left=0;bottom=0;right=0;pointerEvents=1;fontSize=16;" vertex="1" parent="8Xgg-awBeIywaNccyWZv-293">
          <mxGeometry x="46" width="23" height="7" as="geometry">
            <mxRectangle width="23" height="7" as="alternateBounds" />
          </mxGeometry>
        </mxCell>
        <mxCell id="8Xgg-awBeIywaNccyWZv-297" value="dim_customer" style="shape=table;startSize=30;container=1;collapsible=0;childLayout=tableLayout;strokeColor=default;fontSize=10;" vertex="1" parent="1">
          <mxGeometry x="1480" y="1430" width="69" height="50" as="geometry" />
        </mxCell>
        <mxCell id="8Xgg-awBeIywaNccyWZv-298" value="" style="shape=tableRow;horizontal=0;startSize=0;swimlaneHead=0;swimlaneBody=0;strokeColor=inherit;top=0;left=0;bottom=0;right=0;collapsible=0;dropTarget=0;fillColor=none;points=[[0,0.5],[1,0.5]];portConstraint=eastwest;fontSize=16;" vertex="1" parent="8Xgg-awBeIywaNccyWZv-297">
          <mxGeometry y="30" width="69" height="7" as="geometry" />
        </mxCell>
        <mxCell id="8Xgg-awBeIywaNccyWZv-299" value="" style="shape=partialRectangle;html=1;whiteSpace=wrap;connectable=0;strokeColor=inherit;overflow=hidden;fillColor=none;top=0;left=0;bottom=0;right=0;pointerEvents=1;fontSize=16;" vertex="1" parent="8Xgg-awBeIywaNccyWZv-298">
          <mxGeometry width="23" height="7" as="geometry">
            <mxRectangle width="23" height="7" as="alternateBounds" />
          </mxGeometry>
        </mxCell>
        <mxCell id="8Xgg-awBeIywaNccyWZv-300" value="" style="shape=partialRectangle;html=1;whiteSpace=wrap;connectable=0;strokeColor=inherit;overflow=hidden;fillColor=none;top=0;left=0;bottom=0;right=0;pointerEvents=1;fontSize=16;" vertex="1" parent="8Xgg-awBeIywaNccyWZv-298">
          <mxGeometry x="23" width="23" height="7" as="geometry">
            <mxRectangle width="23" height="7" as="alternateBounds" />
          </mxGeometry>
        </mxCell>
        <mxCell id="8Xgg-awBeIywaNccyWZv-301" value="" style="shape=partialRectangle;html=1;whiteSpace=wrap;connectable=0;strokeColor=inherit;overflow=hidden;fillColor=none;top=0;left=0;bottom=0;right=0;pointerEvents=1;fontSize=16;" vertex="1" parent="8Xgg-awBeIywaNccyWZv-298">
          <mxGeometry x="46" width="23" height="7" as="geometry">
            <mxRectangle width="23" height="7" as="alternateBounds" />
          </mxGeometry>
        </mxCell>
        <mxCell id="8Xgg-awBeIywaNccyWZv-302" value="" style="shape=tableRow;horizontal=0;startSize=0;swimlaneHead=0;swimlaneBody=0;strokeColor=inherit;top=0;left=0;bottom=0;right=0;collapsible=0;dropTarget=0;fillColor=none;points=[[0,0.5],[1,0.5]];portConstraint=eastwest;fontSize=16;" vertex="1" parent="8Xgg-awBeIywaNccyWZv-297">
          <mxGeometry y="37" width="69" height="6" as="geometry" />
        </mxCell>
        <mxCell id="8Xgg-awBeIywaNccyWZv-303" value="" style="shape=partialRectangle;html=1;whiteSpace=wrap;connectable=0;strokeColor=inherit;overflow=hidden;fillColor=none;top=0;left=0;bottom=0;right=0;pointerEvents=1;fontSize=16;" vertex="1" parent="8Xgg-awBeIywaNccyWZv-302">
          <mxGeometry width="23" height="6" as="geometry">
            <mxRectangle width="23" height="6" as="alternateBounds" />
          </mxGeometry>
        </mxCell>
        <mxCell id="8Xgg-awBeIywaNccyWZv-304" value="" style="shape=partialRectangle;html=1;whiteSpace=wrap;connectable=0;strokeColor=inherit;overflow=hidden;fillColor=none;top=0;left=0;bottom=0;right=0;pointerEvents=1;fontSize=16;" vertex="1" parent="8Xgg-awBeIywaNccyWZv-302">
          <mxGeometry x="23" width="23" height="6" as="geometry">
            <mxRectangle width="23" height="6" as="alternateBounds" />
          </mxGeometry>
        </mxCell>
        <mxCell id="8Xgg-awBeIywaNccyWZv-305" value="" style="shape=partialRectangle;html=1;whiteSpace=wrap;connectable=0;strokeColor=inherit;overflow=hidden;fillColor=none;top=0;left=0;bottom=0;right=0;pointerEvents=1;fontSize=16;" vertex="1" parent="8Xgg-awBeIywaNccyWZv-302">
          <mxGeometry x="46" width="23" height="6" as="geometry">
            <mxRectangle width="23" height="6" as="alternateBounds" />
          </mxGeometry>
        </mxCell>
        <mxCell id="8Xgg-awBeIywaNccyWZv-306" value="" style="shape=tableRow;horizontal=0;startSize=0;swimlaneHead=0;swimlaneBody=0;strokeColor=inherit;top=0;left=0;bottom=0;right=0;collapsible=0;dropTarget=0;fillColor=none;points=[[0,0.5],[1,0.5]];portConstraint=eastwest;fontSize=16;" vertex="1" parent="8Xgg-awBeIywaNccyWZv-297">
          <mxGeometry y="43" width="69" height="7" as="geometry" />
        </mxCell>
        <mxCell id="8Xgg-awBeIywaNccyWZv-307" value="" style="shape=partialRectangle;html=1;whiteSpace=wrap;connectable=0;strokeColor=inherit;overflow=hidden;fillColor=none;top=0;left=0;bottom=0;right=0;pointerEvents=1;fontSize=16;" vertex="1" parent="8Xgg-awBeIywaNccyWZv-306">
          <mxGeometry width="23" height="7" as="geometry">
            <mxRectangle width="23" height="7" as="alternateBounds" />
          </mxGeometry>
        </mxCell>
        <mxCell id="8Xgg-awBeIywaNccyWZv-308" value="" style="shape=partialRectangle;html=1;whiteSpace=wrap;connectable=0;strokeColor=inherit;overflow=hidden;fillColor=none;top=0;left=0;bottom=0;right=0;pointerEvents=1;fontSize=16;" vertex="1" parent="8Xgg-awBeIywaNccyWZv-306">
          <mxGeometry x="23" width="23" height="7" as="geometry">
            <mxRectangle width="23" height="7" as="alternateBounds" />
          </mxGeometry>
        </mxCell>
        <mxCell id="8Xgg-awBeIywaNccyWZv-309" value="" style="shape=partialRectangle;html=1;whiteSpace=wrap;connectable=0;strokeColor=inherit;overflow=hidden;fillColor=none;top=0;left=0;bottom=0;right=0;pointerEvents=1;fontSize=16;" vertex="1" parent="8Xgg-awBeIywaNccyWZv-306">
          <mxGeometry x="46" width="23" height="7" as="geometry">
            <mxRectangle width="23" height="7" as="alternateBounds" />
          </mxGeometry>
        </mxCell>
        <mxCell id="8Xgg-awBeIywaNccyWZv-310" value="dim_policy" style="shape=table;startSize=30;container=1;collapsible=0;childLayout=tableLayout;strokeColor=default;fontSize=11;" vertex="1" parent="1">
          <mxGeometry x="1380" y="1430" width="69" height="50" as="geometry" />
        </mxCell>
        <mxCell id="8Xgg-awBeIywaNccyWZv-311" value="" style="shape=tableRow;horizontal=0;startSize=0;swimlaneHead=0;swimlaneBody=0;strokeColor=inherit;top=0;left=0;bottom=0;right=0;collapsible=0;dropTarget=0;fillColor=none;points=[[0,0.5],[1,0.5]];portConstraint=eastwest;fontSize=16;" vertex="1" parent="8Xgg-awBeIywaNccyWZv-310">
          <mxGeometry y="30" width="69" height="7" as="geometry" />
        </mxCell>
        <mxCell id="8Xgg-awBeIywaNccyWZv-312" value="" style="shape=partialRectangle;html=1;whiteSpace=wrap;connectable=0;strokeColor=inherit;overflow=hidden;fillColor=none;top=0;left=0;bottom=0;right=0;pointerEvents=1;fontSize=16;" vertex="1" parent="8Xgg-awBeIywaNccyWZv-311">
          <mxGeometry width="23" height="7" as="geometry">
            <mxRectangle width="23" height="7" as="alternateBounds" />
          </mxGeometry>
        </mxCell>
        <mxCell id="8Xgg-awBeIywaNccyWZv-313" value="" style="shape=partialRectangle;html=1;whiteSpace=wrap;connectable=0;strokeColor=inherit;overflow=hidden;fillColor=none;top=0;left=0;bottom=0;right=0;pointerEvents=1;fontSize=16;" vertex="1" parent="8Xgg-awBeIywaNccyWZv-311">
          <mxGeometry x="23" width="23" height="7" as="geometry">
            <mxRectangle width="23" height="7" as="alternateBounds" />
          </mxGeometry>
        </mxCell>
        <mxCell id="8Xgg-awBeIywaNccyWZv-314" value="" style="shape=partialRectangle;html=1;whiteSpace=wrap;connectable=0;strokeColor=inherit;overflow=hidden;fillColor=none;top=0;left=0;bottom=0;right=0;pointerEvents=1;fontSize=16;" vertex="1" parent="8Xgg-awBeIywaNccyWZv-311">
          <mxGeometry x="46" width="23" height="7" as="geometry">
            <mxRectangle width="23" height="7" as="alternateBounds" />
          </mxGeometry>
        </mxCell>
        <mxCell id="8Xgg-awBeIywaNccyWZv-315" value="" style="shape=tableRow;horizontal=0;startSize=0;swimlaneHead=0;swimlaneBody=0;strokeColor=inherit;top=0;left=0;bottom=0;right=0;collapsible=0;dropTarget=0;fillColor=none;points=[[0,0.5],[1,0.5]];portConstraint=eastwest;fontSize=16;" vertex="1" parent="8Xgg-awBeIywaNccyWZv-310">
          <mxGeometry y="37" width="69" height="6" as="geometry" />
        </mxCell>
        <mxCell id="8Xgg-awBeIywaNccyWZv-316" value="" style="shape=partialRectangle;html=1;whiteSpace=wrap;connectable=0;strokeColor=inherit;overflow=hidden;fillColor=none;top=0;left=0;bottom=0;right=0;pointerEvents=1;fontSize=16;" vertex="1" parent="8Xgg-awBeIywaNccyWZv-315">
          <mxGeometry width="23" height="6" as="geometry">
            <mxRectangle width="23" height="6" as="alternateBounds" />
          </mxGeometry>
        </mxCell>
        <mxCell id="8Xgg-awBeIywaNccyWZv-317" value="" style="shape=partialRectangle;html=1;whiteSpace=wrap;connectable=0;strokeColor=inherit;overflow=hidden;fillColor=none;top=0;left=0;bottom=0;right=0;pointerEvents=1;fontSize=16;" vertex="1" parent="8Xgg-awBeIywaNccyWZv-315">
          <mxGeometry x="23" width="23" height="6" as="geometry">
            <mxRectangle width="23" height="6" as="alternateBounds" />
          </mxGeometry>
        </mxCell>
        <mxCell id="8Xgg-awBeIywaNccyWZv-318" value="" style="shape=partialRectangle;html=1;whiteSpace=wrap;connectable=0;strokeColor=inherit;overflow=hidden;fillColor=none;top=0;left=0;bottom=0;right=0;pointerEvents=1;fontSize=16;" vertex="1" parent="8Xgg-awBeIywaNccyWZv-315">
          <mxGeometry x="46" width="23" height="6" as="geometry">
            <mxRectangle width="23" height="6" as="alternateBounds" />
          </mxGeometry>
        </mxCell>
        <mxCell id="8Xgg-awBeIywaNccyWZv-319" value="" style="shape=tableRow;horizontal=0;startSize=0;swimlaneHead=0;swimlaneBody=0;strokeColor=inherit;top=0;left=0;bottom=0;right=0;collapsible=0;dropTarget=0;fillColor=none;points=[[0,0.5],[1,0.5]];portConstraint=eastwest;fontSize=16;" vertex="1" parent="8Xgg-awBeIywaNccyWZv-310">
          <mxGeometry y="43" width="69" height="7" as="geometry" />
        </mxCell>
        <mxCell id="8Xgg-awBeIywaNccyWZv-320" value="" style="shape=partialRectangle;html=1;whiteSpace=wrap;connectable=0;strokeColor=inherit;overflow=hidden;fillColor=none;top=0;left=0;bottom=0;right=0;pointerEvents=1;fontSize=16;" vertex="1" parent="8Xgg-awBeIywaNccyWZv-319">
          <mxGeometry width="23" height="7" as="geometry">
            <mxRectangle width="23" height="7" as="alternateBounds" />
          </mxGeometry>
        </mxCell>
        <mxCell id="8Xgg-awBeIywaNccyWZv-321" value="" style="shape=partialRectangle;html=1;whiteSpace=wrap;connectable=0;strokeColor=inherit;overflow=hidden;fillColor=none;top=0;left=0;bottom=0;right=0;pointerEvents=1;fontSize=16;" vertex="1" parent="8Xgg-awBeIywaNccyWZv-319">
          <mxGeometry x="23" width="23" height="7" as="geometry">
            <mxRectangle width="23" height="7" as="alternateBounds" />
          </mxGeometry>
        </mxCell>
        <mxCell id="8Xgg-awBeIywaNccyWZv-322" value="" style="shape=partialRectangle;html=1;whiteSpace=wrap;connectable=0;strokeColor=inherit;overflow=hidden;fillColor=none;top=0;left=0;bottom=0;right=0;pointerEvents=1;fontSize=16;" vertex="1" parent="8Xgg-awBeIywaNccyWZv-319">
          <mxGeometry x="46" width="23" height="7" as="geometry">
            <mxRectangle width="23" height="7" as="alternateBounds" />
          </mxGeometry>
        </mxCell>
        <mxCell id="8Xgg-awBeIywaNccyWZv-323" value="dim_z" style="shape=table;startSize=30;container=1;collapsible=0;childLayout=tableLayout;strokeColor=default;fontSize=16;" vertex="1" parent="1">
          <mxGeometry x="1570" y="1520" width="69" height="50" as="geometry" />
        </mxCell>
        <mxCell id="8Xgg-awBeIywaNccyWZv-324" value="" style="shape=tableRow;horizontal=0;startSize=0;swimlaneHead=0;swimlaneBody=0;strokeColor=inherit;top=0;left=0;bottom=0;right=0;collapsible=0;dropTarget=0;fillColor=none;points=[[0,0.5],[1,0.5]];portConstraint=eastwest;fontSize=16;" vertex="1" parent="8Xgg-awBeIywaNccyWZv-323">
          <mxGeometry y="30" width="69" height="7" as="geometry" />
        </mxCell>
        <mxCell id="8Xgg-awBeIywaNccyWZv-325" value="" style="shape=partialRectangle;html=1;whiteSpace=wrap;connectable=0;strokeColor=inherit;overflow=hidden;fillColor=none;top=0;left=0;bottom=0;right=0;pointerEvents=1;fontSize=16;" vertex="1" parent="8Xgg-awBeIywaNccyWZv-324">
          <mxGeometry width="23" height="7" as="geometry">
            <mxRectangle width="23" height="7" as="alternateBounds" />
          </mxGeometry>
        </mxCell>
        <mxCell id="8Xgg-awBeIywaNccyWZv-326" value="" style="shape=partialRectangle;html=1;whiteSpace=wrap;connectable=0;strokeColor=inherit;overflow=hidden;fillColor=none;top=0;left=0;bottom=0;right=0;pointerEvents=1;fontSize=16;" vertex="1" parent="8Xgg-awBeIywaNccyWZv-324">
          <mxGeometry x="23" width="23" height="7" as="geometry">
            <mxRectangle width="23" height="7" as="alternateBounds" />
          </mxGeometry>
        </mxCell>
        <mxCell id="8Xgg-awBeIywaNccyWZv-327" value="" style="shape=partialRectangle;html=1;whiteSpace=wrap;connectable=0;strokeColor=inherit;overflow=hidden;fillColor=none;top=0;left=0;bottom=0;right=0;pointerEvents=1;fontSize=16;" vertex="1" parent="8Xgg-awBeIywaNccyWZv-324">
          <mxGeometry x="46" width="23" height="7" as="geometry">
            <mxRectangle width="23" height="7" as="alternateBounds" />
          </mxGeometry>
        </mxCell>
        <mxCell id="8Xgg-awBeIywaNccyWZv-328" value="" style="shape=tableRow;horizontal=0;startSize=0;swimlaneHead=0;swimlaneBody=0;strokeColor=inherit;top=0;left=0;bottom=0;right=0;collapsible=0;dropTarget=0;fillColor=none;points=[[0,0.5],[1,0.5]];portConstraint=eastwest;fontSize=16;" vertex="1" parent="8Xgg-awBeIywaNccyWZv-323">
          <mxGeometry y="37" width="69" height="6" as="geometry" />
        </mxCell>
        <mxCell id="8Xgg-awBeIywaNccyWZv-329" value="" style="shape=partialRectangle;html=1;whiteSpace=wrap;connectable=0;strokeColor=inherit;overflow=hidden;fillColor=none;top=0;left=0;bottom=0;right=0;pointerEvents=1;fontSize=16;" vertex="1" parent="8Xgg-awBeIywaNccyWZv-328">
          <mxGeometry width="23" height="6" as="geometry">
            <mxRectangle width="23" height="6" as="alternateBounds" />
          </mxGeometry>
        </mxCell>
        <mxCell id="8Xgg-awBeIywaNccyWZv-330" value="" style="shape=partialRectangle;html=1;whiteSpace=wrap;connectable=0;strokeColor=inherit;overflow=hidden;fillColor=none;top=0;left=0;bottom=0;right=0;pointerEvents=1;fontSize=16;" vertex="1" parent="8Xgg-awBeIywaNccyWZv-328">
          <mxGeometry x="23" width="23" height="6" as="geometry">
            <mxRectangle width="23" height="6" as="alternateBounds" />
          </mxGeometry>
        </mxCell>
        <mxCell id="8Xgg-awBeIywaNccyWZv-331" value="" style="shape=partialRectangle;html=1;whiteSpace=wrap;connectable=0;strokeColor=inherit;overflow=hidden;fillColor=none;top=0;left=0;bottom=0;right=0;pointerEvents=1;fontSize=16;" vertex="1" parent="8Xgg-awBeIywaNccyWZv-328">
          <mxGeometry x="46" width="23" height="6" as="geometry">
            <mxRectangle width="23" height="6" as="alternateBounds" />
          </mxGeometry>
        </mxCell>
        <mxCell id="8Xgg-awBeIywaNccyWZv-332" value="" style="shape=tableRow;horizontal=0;startSize=0;swimlaneHead=0;swimlaneBody=0;strokeColor=inherit;top=0;left=0;bottom=0;right=0;collapsible=0;dropTarget=0;fillColor=none;points=[[0,0.5],[1,0.5]];portConstraint=eastwest;fontSize=16;" vertex="1" parent="8Xgg-awBeIywaNccyWZv-323">
          <mxGeometry y="43" width="69" height="7" as="geometry" />
        </mxCell>
        <mxCell id="8Xgg-awBeIywaNccyWZv-333" value="" style="shape=partialRectangle;html=1;whiteSpace=wrap;connectable=0;strokeColor=inherit;overflow=hidden;fillColor=none;top=0;left=0;bottom=0;right=0;pointerEvents=1;fontSize=16;" vertex="1" parent="8Xgg-awBeIywaNccyWZv-332">
          <mxGeometry width="23" height="7" as="geometry">
            <mxRectangle width="23" height="7" as="alternateBounds" />
          </mxGeometry>
        </mxCell>
        <mxCell id="8Xgg-awBeIywaNccyWZv-334" value="" style="shape=partialRectangle;html=1;whiteSpace=wrap;connectable=0;strokeColor=inherit;overflow=hidden;fillColor=none;top=0;left=0;bottom=0;right=0;pointerEvents=1;fontSize=16;" vertex="1" parent="8Xgg-awBeIywaNccyWZv-332">
          <mxGeometry x="23" width="23" height="7" as="geometry">
            <mxRectangle width="23" height="7" as="alternateBounds" />
          </mxGeometry>
        </mxCell>
        <mxCell id="8Xgg-awBeIywaNccyWZv-335" value="" style="shape=partialRectangle;html=1;whiteSpace=wrap;connectable=0;strokeColor=inherit;overflow=hidden;fillColor=none;top=0;left=0;bottom=0;right=0;pointerEvents=1;fontSize=16;" vertex="1" parent="8Xgg-awBeIywaNccyWZv-332">
          <mxGeometry x="46" width="23" height="7" as="geometry">
            <mxRectangle width="23" height="7" as="alternateBounds" />
          </mxGeometry>
        </mxCell>
        <mxCell id="8Xgg-awBeIywaNccyWZv-336" value="&lt;h1 style=&quot;margin-top: 0px;&quot;&gt;&lt;div style=&quot;color: #cccccc;background-color: #1f1f1f;font-family: Consolas, &#39;Courier New&#39;, monospace;font-weight: normal;font-size: 14px;line-height: 19px;white-space: pre;&quot;&gt;&lt;div&gt;&lt;span style=&quot;color: #808080;&quot;&gt;&amp;lt;&lt;/span&gt;&lt;span style=&quot;color: #569cd6;&quot;&gt;catalog&lt;/span&gt; &lt;span style=&quot;color: #9cdcfe;&quot;&gt;issue&lt;/span&gt;=&lt;span style=&quot;color: #ce9178;&quot;&gt;&quot;spring&quot;&lt;/span&gt; &lt;span style=&quot;color: #9cdcfe;&quot;&gt;date&lt;/span&gt;=&lt;span style=&quot;color: #ce9178;&quot;&gt;&quot;2015-04-15&quot;&lt;/span&gt;&lt;span style=&quot;color: #808080;&quot;&gt;&amp;gt;&lt;/span&gt;&lt;/div&gt;&lt;div&gt;&amp;nbsp; &amp;nbsp; &lt;span style=&quot;color: #808080;&quot;&gt;&amp;lt;&lt;/span&gt;&lt;span style=&quot;color: #569cd6;&quot;&gt;book&lt;/span&gt; &lt;span style=&quot;color: #9cdcfe;&quot;&gt;id&lt;/span&gt;=&lt;span style=&quot;color: #ce9178;&quot;&gt;&quot;bk101&quot;&lt;/span&gt;&lt;span style=&quot;color: #808080;&quot;&gt;&amp;gt;&lt;/span&gt;&lt;/div&gt;&lt;div&gt;&amp;nbsp; &amp;nbsp; &amp;nbsp; &amp;nbsp; &lt;span style=&quot;color: #808080;&quot;&gt;&amp;lt;&lt;/span&gt;&lt;span style=&quot;color: #569cd6;&quot;&gt;title&lt;/span&gt;&lt;span style=&quot;color: #808080;&quot;&gt;&amp;gt;&lt;/span&gt;Some Great Book&lt;span style=&quot;color: #808080;&quot;&gt;&amp;lt;/&lt;/span&gt;&lt;span style=&quot;color: #569cd6;&quot;&gt;title&lt;/span&gt;&lt;span style=&quot;color: #808080;&quot;&gt;&amp;gt;&lt;/span&gt;&lt;/div&gt;&lt;div&gt;&amp;nbsp; &amp;nbsp; &amp;nbsp; &amp;nbsp; &lt;span style=&quot;color: #808080;&quot;&gt;&amp;lt;&lt;/span&gt;&lt;span style=&quot;color: #569cd6;&quot;&gt;genre&lt;/span&gt;&lt;span style=&quot;color: #808080;&quot;&gt;&amp;gt;&lt;/span&gt;Great Books&lt;span style=&quot;color: #808080;&quot;&gt;&amp;lt;/&lt;/span&gt;&lt;span style=&quot;color: #569cd6;&quot;&gt;genre&lt;/span&gt;&lt;span style=&quot;color: #808080;&quot;&gt;&amp;gt;&lt;/span&gt;&lt;/div&gt;&lt;div&gt;&amp;nbsp; &amp;nbsp; &amp;nbsp; &amp;nbsp; &lt;span style=&quot;color: #808080;&quot;&gt;&amp;lt;&lt;/span&gt;&lt;span style=&quot;color: #569cd6;&quot;&gt;author&lt;/span&gt;&lt;span style=&quot;color: #808080;&quot;&gt;&amp;gt;&lt;/span&gt;Jon Smith&lt;span style=&quot;color: #808080;&quot;&gt;&amp;lt;/&lt;/span&gt;&lt;span style=&quot;color: #569cd6;&quot;&gt;author&lt;/span&gt;&lt;span style=&quot;color: #808080;&quot;&gt;&amp;gt;&lt;/span&gt;&lt;/div&gt;&lt;div&gt;&amp;nbsp; &amp;nbsp; &amp;nbsp; &amp;nbsp; &lt;span style=&quot;color: #808080;&quot;&gt;&amp;lt;&lt;/span&gt;&lt;span style=&quot;color: #569cd6;&quot;&gt;publish_date&lt;/span&gt;&lt;span style=&quot;color: #808080;&quot;&gt;&amp;gt;&lt;/span&gt;2001-12-28&lt;span style=&quot;color: #808080;&quot;&gt;&amp;lt;/&lt;/span&gt;&lt;span style=&quot;color: #569cd6;&quot;&gt;publish_date&lt;/span&gt;&lt;span style=&quot;color: #808080;&quot;&gt;&amp;gt;&lt;/span&gt;&lt;/div&gt;&lt;div&gt;&amp;nbsp; &amp;nbsp; &amp;nbsp; &amp;nbsp; &lt;span style=&quot;color: #808080;&quot;&gt;&amp;lt;&lt;/span&gt;&lt;span style=&quot;color: #569cd6;&quot;&gt;price&lt;/span&gt;&lt;span style=&quot;color: #808080;&quot;&gt;&amp;gt;&lt;/span&gt;23.39&lt;span style=&quot;color: #808080;&quot;&gt;&amp;lt;/&lt;/span&gt;&lt;span style=&quot;color: #569cd6;&quot;&gt;price&lt;/span&gt;&lt;span style=&quot;color: #808080;&quot;&gt;&amp;gt;&lt;/span&gt;&lt;/div&gt;&lt;div&gt;&amp;nbsp; &amp;nbsp; &amp;nbsp; &amp;nbsp; &lt;span style=&quot;color: #808080;&quot;&gt;&amp;lt;&lt;/span&gt;&lt;span style=&quot;color: #569cd6;&quot;&gt;description&lt;/span&gt;&lt;span style=&quot;color: #808080;&quot;&gt;&amp;gt;&lt;/span&gt;This is a great book!&lt;span style=&quot;color: #808080;&quot;&gt;&amp;lt;/&lt;/span&gt;&lt;span style=&quot;color: #569cd6;&quot;&gt;description&lt;/span&gt;&lt;span style=&quot;color: #808080;&quot;&gt;&amp;gt;&lt;/span&gt;&lt;/div&gt;&lt;div&gt;&amp;nbsp; &amp;nbsp; &lt;span style=&quot;color: #808080;&quot;&gt;&amp;lt;/&lt;/span&gt;&lt;span style=&quot;color: #569cd6;&quot;&gt;book&lt;/span&gt;&lt;span style=&quot;color: #808080;&quot;&gt;&amp;gt;&lt;/span&gt;&lt;/div&gt;&lt;div&gt;&amp;nbsp; &amp;nbsp; &lt;span style=&quot;color: #808080;&quot;&gt;&amp;lt;&lt;/span&gt;&lt;span style=&quot;color: #569cd6;&quot;&gt;cd&lt;/span&gt; &lt;span style=&quot;color: #9cdcfe;&quot;&gt;id&lt;/span&gt;=&lt;span style=&quot;color: #ce9178;&quot;&gt;&quot;cd101&quot;&lt;/span&gt;&lt;span style=&quot;color: #808080;&quot;&gt;&amp;gt;&lt;/span&gt;&lt;/div&gt;&lt;div&gt;&amp;nbsp; &amp;nbsp; &amp;nbsp; &amp;nbsp; &lt;span style=&quot;color: #808080;&quot;&gt;&amp;lt;&lt;/span&gt;&lt;span style=&quot;color: #569cd6;&quot;&gt;title&lt;/span&gt;&lt;span style=&quot;color: #808080;&quot;&gt;&amp;gt;&lt;/span&gt;Sad Music&lt;span style=&quot;color: #808080;&quot;&gt;&amp;lt;/&lt;/span&gt;&lt;span style=&quot;color: #569cd6;&quot;&gt;title&lt;/span&gt;&lt;span style=&quot;color: #808080;&quot;&gt;&amp;gt;&lt;/span&gt;&lt;/div&gt;&lt;div&gt;&amp;nbsp; &amp;nbsp; &amp;nbsp; &amp;nbsp; &lt;span style=&quot;color: #808080;&quot;&gt;&amp;lt;&lt;/span&gt;&lt;span style=&quot;color: #569cd6;&quot;&gt;genre&lt;/span&gt;&lt;span style=&quot;color: #808080;&quot;&gt;&amp;gt;&lt;/span&gt;Sad&lt;span style=&quot;color: #808080;&quot;&gt;&amp;lt;/&lt;/span&gt;&lt;span style=&quot;color: #569cd6;&quot;&gt;genre&lt;/span&gt;&lt;span style=&quot;color: #808080;&quot;&gt;&amp;gt;&lt;/span&gt;&lt;/div&gt;&lt;div&gt;&amp;nbsp; &amp;nbsp; &amp;nbsp; &amp;nbsp; &lt;span style=&quot;color: #808080;&quot;&gt;&amp;lt;&lt;/span&gt;&lt;span style=&quot;color: #569cd6;&quot;&gt;artist&lt;/span&gt;&lt;span style=&quot;color: #808080;&quot;&gt;&amp;gt;&lt;/span&gt;Emo Jones&lt;span style=&quot;color: #808080;&quot;&gt;&amp;lt;/&lt;/span&gt;&lt;span style=&quot;color: #569cd6;&quot;&gt;artist&lt;/span&gt;&lt;span style=&quot;color: #808080;&quot;&gt;&amp;gt;&lt;/span&gt;&lt;/div&gt;&lt;div&gt;&amp;nbsp; &amp;nbsp; &amp;nbsp; &amp;nbsp; &lt;span style=&quot;color: #808080;&quot;&gt;&amp;lt;&lt;/span&gt;&lt;span style=&quot;color: #569cd6;&quot;&gt;publish_date&lt;/span&gt;&lt;span style=&quot;color: #808080;&quot;&gt;&amp;gt;&lt;/span&gt;2010-11-23&lt;span style=&quot;color: #808080;&quot;&gt;&amp;lt;/&lt;/span&gt;&lt;span style=&quot;color: #569cd6;&quot;&gt;publish_date&lt;/span&gt;&lt;span style=&quot;color: #808080;&quot;&gt;&amp;gt;&lt;/span&gt;&lt;/div&gt;&lt;div&gt;&amp;nbsp; &amp;nbsp; &amp;nbsp; &amp;nbsp; &lt;span style=&quot;color: #808080;&quot;&gt;&amp;lt;&lt;/span&gt;&lt;span style=&quot;color: #569cd6;&quot;&gt;price&lt;/span&gt;&lt;span style=&quot;color: #808080;&quot;&gt;&amp;gt;&lt;/span&gt;15.25&lt;span style=&quot;color: #808080;&quot;&gt;&amp;lt;/&lt;/span&gt;&lt;span style=&quot;color: #569cd6;&quot;&gt;price&lt;/span&gt;&lt;span style=&quot;color: #808080;&quot;&gt;&amp;gt;&lt;/span&gt;&lt;/div&gt;&lt;div&gt;&amp;nbsp; &amp;nbsp; &amp;nbsp; &amp;nbsp; &lt;span style=&quot;color: #808080;&quot;&gt;&amp;lt;&lt;/span&gt;&lt;span style=&quot;color: #569cd6;&quot;&gt;description&lt;/span&gt;&lt;span style=&quot;color: #808080;&quot;&gt;&amp;gt;&lt;/span&gt;This music is so sad!&lt;span style=&quot;color: #808080;&quot;&gt;&amp;lt;/&lt;/span&gt;&lt;span style=&quot;color: #569cd6;&quot;&gt;description&lt;/span&gt;&lt;span style=&quot;color: #808080;&quot;&gt;&amp;gt;&lt;/span&gt;&lt;/div&gt;&lt;div&gt;&amp;nbsp; &amp;nbsp; &lt;span style=&quot;color: #808080;&quot;&gt;&amp;lt;/&lt;/span&gt;&lt;span style=&quot;color: #569cd6;&quot;&gt;cd&lt;/span&gt;&lt;span style=&quot;color: #808080;&quot;&gt;&amp;gt;&lt;/span&gt;&lt;/div&gt;&lt;div&gt;&amp;nbsp; &amp;nbsp; &lt;span style=&quot;color: #808080;&quot;&gt;&amp;lt;&lt;/span&gt;&lt;span style=&quot;color: #569cd6;&quot;&gt;map&lt;/span&gt; &lt;span style=&quot;color: #9cdcfe;&quot;&gt;id&lt;/span&gt;=&lt;span style=&quot;color: #ce9178;&quot;&gt;&quot;map101&quot;&lt;/span&gt;&lt;span style=&quot;color: #808080;&quot;&gt;&amp;gt;&lt;/span&gt;&lt;/div&gt;&lt;div&gt;&amp;nbsp; &amp;nbsp; &amp;nbsp; &amp;nbsp; &lt;span style=&quot;color: #808080;&quot;&gt;&amp;lt;&lt;/span&gt;&lt;span style=&quot;color: #569cd6;&quot;&gt;title&lt;/span&gt;&lt;span style=&quot;color: #808080;&quot;&gt;&amp;gt;&lt;/span&gt;Good CD&lt;span style=&quot;color: #808080;&quot;&gt;&amp;lt;/&lt;/span&gt;&lt;span style=&quot;color: #569cd6;&quot;&gt;title&lt;/span&gt;&lt;span style=&quot;color: #808080;&quot;&gt;&amp;gt;&lt;/span&gt;&lt;/div&gt;&lt;div&gt;&amp;nbsp; &amp;nbsp; &amp;nbsp; &amp;nbsp; &lt;span style=&quot;color: #808080;&quot;&gt;&amp;lt;&lt;/span&gt;&lt;span style=&quot;color: #569cd6;&quot;&gt;location&lt;/span&gt;&lt;span style=&quot;color: #808080;&quot;&gt;&amp;gt;&lt;/span&gt;North America&lt;span style=&quot;color: #808080;&quot;&gt;&amp;lt;/&lt;/span&gt;&lt;span style=&quot;color: #569cd6;&quot;&gt;location&lt;/span&gt;&lt;span style=&quot;color: #808080;&quot;&gt;&amp;gt;&lt;/span&gt;&lt;/div&gt;&lt;div&gt;&amp;nbsp; &amp;nbsp; &amp;nbsp; &amp;nbsp; &lt;span style=&quot;color: #808080;&quot;&gt;&amp;lt;&lt;/span&gt;&lt;span style=&quot;color: #569cd6;&quot;&gt;author&lt;/span&gt;&lt;span style=&quot;color: #808080;&quot;&gt;&amp;gt;&lt;/span&gt;Joey Bagadonuts&lt;span style=&quot;color: #808080;&quot;&gt;&amp;lt;/&lt;/span&gt;&lt;span style=&quot;color: #569cd6;&quot;&gt;author&lt;/span&gt;&lt;span style=&quot;color: #808080;&quot;&gt;&amp;gt;&lt;/span&gt;&lt;/div&gt;&lt;div&gt;&amp;nbsp; &amp;nbsp; &amp;nbsp; &amp;nbsp; &lt;span style=&quot;color: #808080;&quot;&gt;&amp;lt;&lt;/span&gt;&lt;span style=&quot;color: #569cd6;&quot;&gt;publish_date&lt;/span&gt;&lt;span style=&quot;color: #808080;&quot;&gt;&amp;gt;&lt;/span&gt;2013-02-02&lt;span style=&quot;color: #808080;&quot;&gt;&amp;lt;/&lt;/span&gt;&lt;span style=&quot;color: #569cd6;&quot;&gt;publish_date&lt;/span&gt;&lt;span style=&quot;color: #808080;&quot;&gt;&amp;gt;&lt;/span&gt;&lt;/div&gt;&lt;div&gt;&amp;nbsp; &amp;nbsp; &amp;nbsp; &amp;nbsp; &lt;span style=&quot;color: #808080;&quot;&gt;&amp;lt;&lt;/span&gt;&lt;span style=&quot;color: #569cd6;&quot;&gt;price&lt;/span&gt;&lt;span style=&quot;color: #808080;&quot;&gt;&amp;gt;&lt;/span&gt;102.95&lt;span style=&quot;color: #808080;&quot;&gt;&amp;lt;/&lt;/span&gt;&lt;span style=&quot;color: #569cd6;&quot;&gt;price&lt;/span&gt;&lt;span style=&quot;color: #808080;&quot;&gt;&amp;gt;&lt;/span&gt;&lt;/div&gt;&lt;div&gt;&amp;nbsp; &amp;nbsp; &amp;nbsp; &amp;nbsp; &lt;span style=&quot;color: #808080;&quot;&gt;&amp;lt;&lt;/span&gt;&lt;span style=&quot;color: #569cd6;&quot;&gt;description&lt;/span&gt;&lt;span style=&quot;color: #808080;&quot;&gt;&amp;gt;&lt;/span&gt;Trail map of North America&lt;span style=&quot;color: #808080;&quot;&gt;&amp;lt;/&lt;/span&gt;&lt;span style=&quot;color: #569cd6;&quot;&gt;description&lt;/span&gt;&lt;span style=&quot;color: #808080;&quot;&gt;&amp;gt;&lt;/span&gt;&lt;/div&gt;&lt;div&gt;&amp;nbsp; &amp;nbsp; &lt;span style=&quot;color: #808080;&quot;&gt;&amp;lt;/&lt;/span&gt;&lt;span style=&quot;color: #569cd6;&quot;&gt;map&lt;/span&gt;&lt;span style=&quot;color: #808080;&quot;&gt;&amp;gt;&lt;/span&gt;&lt;/div&gt;&lt;div&gt;&lt;span style=&quot;color: #808080;&quot;&gt;&amp;lt;/&lt;/span&gt;&lt;span style=&quot;color: #569cd6;&quot;&gt;catalog&lt;/span&gt;&lt;span style=&quot;color: #808080;&quot;&gt;&amp;gt;&lt;/span&gt;&lt;/div&gt;&lt;/div&gt;&lt;/h1&gt;" style="text;html=1;whiteSpace=wrap;overflow=hidden;rounded=0;labelBackgroundColor=#000000;" vertex="1" parent="1">
          <mxGeometry x="551.5" y="1670" width="470" height="520" as="geometry" />
        </mxCell>
        <mxCell id="8Xgg-awBeIywaNccyWZv-337" value="&lt;div&gt;/*&lt;/div&gt;&lt;div&gt;Parse the xml into fields&lt;/div&gt;&lt;div&gt;*/&lt;/div&gt;&lt;div&gt;select&amp;nbsp;&lt;/div&gt;&lt;div&gt;&amp;nbsp; &amp;nbsp; systemid,&lt;/div&gt;&lt;div&gt;&amp;nbsp; &amp;nbsp; updateddate,&lt;/div&gt;&lt;div&gt;&amp;nbsp; &amp;nbsp; updatedby,&lt;/div&gt;&lt;div&gt;&amp;nbsp; &amp;nbsp; t1.xmlcontent:&quot;@issue&quot;::STRING AS issue,&lt;/div&gt;&lt;div&gt;&amp;nbsp; &amp;nbsp; to_date(t1.xmlcontent:&quot;@date&quot;::STRING, &#39;YYYY-MM-DD&#39;) as date,&lt;/div&gt;&lt;div&gt;&amp;nbsp; &amp;nbsp; XMLGET(VALUE, &#39;title&#39;):&quot;$&quot;::STRING as title,&lt;/div&gt;&lt;div&gt;&amp;nbsp; &amp;nbsp; COALESCE(&lt;/div&gt;&lt;div&gt;&amp;nbsp; &amp;nbsp; &amp;nbsp; &amp;nbsp; XMLGET(VALUE, &#39;genre&#39;):&quot;$&quot;::STRING,&lt;/div&gt;&lt;div&gt;&amp;nbsp; &amp;nbsp; &amp;nbsp; &amp;nbsp; XMLGET(VALUE, &#39;location&#39;):&quot;$&quot;::STRING&lt;/div&gt;&lt;div&gt;&amp;nbsp; &amp;nbsp; ) AS genre_or_location,&lt;/div&gt;&lt;div&gt;&amp;nbsp; &amp;nbsp; COALESCE(&lt;/div&gt;&lt;div&gt;&amp;nbsp; &amp;nbsp; &amp;nbsp; &amp;nbsp; XMLGET( VALUE, &#39;author&#39; ):&quot;$&quot;::STRING,&amp;nbsp;&lt;/div&gt;&lt;div&gt;&amp;nbsp; &amp;nbsp; &amp;nbsp; &amp;nbsp; XMLGET( VALUE, &#39;artist&#39; ):&quot;$&quot;::STRING&amp;nbsp;&lt;/div&gt;&lt;div&gt;&amp;nbsp; &amp;nbsp; ) AS author_or_artist,&amp;nbsp;&lt;/div&gt;&lt;div&gt;from xmlcontent t1,&lt;/div&gt;&lt;div&gt;lateral flatten(INPUT =&amp;gt; t1.xmlcontent:&quot;$&quot;);&amp;nbsp;&lt;/div&gt;" style="text;html=1;align=left;verticalAlign=middle;whiteSpace=wrap;rounded=0;labelBackgroundColor=default;labelBorderColor=default;" vertex="1" parent="1">
          <mxGeometry x="1092.5" y="1680" width="377.5" height="290" as="geometry" />
        </mxCell>
      </root>
    </mxGraphModel>
  </diagram>
  <diagram id="J3P_O_eOyajhAXFaDcaP" name="Page-2">
    <mxGraphModel grid="1" page="1" gridSize="10" guides="1" tooltips="1" connect="1" arrows="1" fold="1" pageScale="1" pageWidth="850" pageHeight="1100" math="0" shadow="0">
      <root>
        <mxCell id="0" />
        <mxCell id="1" parent="0" />
        <mxCell id="w01i-qKT7NMyt8FK4lqk-25" style="edgeStyle=orthogonalEdgeStyle;rounded=0;html=1;labelBackgroundColor=none;endArrow=none;endFill=0;endSize=8;fontFamily=Verdana;fontSize=12;align=left;movable=0;resizable=0;rotatable=0;deletable=0;editable=0;locked=1;connectable=0;" edge="1" parent="1" source="w01i-qKT7NMyt8FK4lqk-27" target="w01i-qKT7NMyt8FK4lqk-49">
          <mxGeometry relative="1" as="geometry">
            <Array as="points">
              <mxPoint x="140" y="820" />
              <mxPoint x="700" y="820" />
            </Array>
          </mxGeometry>
        </mxCell>
        <mxCell id="w01i-qKT7NMyt8FK4lqk-26" style="edgeStyle=orthogonalEdgeStyle;rounded=0;html=1;exitX=1;exitY=0.5;entryX=0;entryY=0.25;labelBackgroundColor=none;endArrow=none;endFill=0;endSize=8;fontFamily=Verdana;fontSize=12;align=left;movable=0;resizable=0;rotatable=0;deletable=0;editable=0;locked=1;connectable=0;" edge="1" parent="1" source="w01i-qKT7NMyt8FK4lqk-27" target="w01i-qKT7NMyt8FK4lqk-35">
          <mxGeometry relative="1" as="geometry" />
        </mxCell>
        <mxCell id="w01i-qKT7NMyt8FK4lqk-27" value="&lt;p style=&quot;margin: 0px ; margin-top: 4px ; text-align: center ; text-decoration: underline&quot;&gt;&lt;b&gt;Object:Type&lt;/b&gt;&lt;/p&gt;&lt;hr&gt;&lt;p style=&quot;margin: 0px ; margin-left: 8px&quot;&gt;field1 = value1&lt;br&gt;field2 = value2&lt;br&gt;field3 = value3&lt;/p&gt;&lt;p style=&quot;margin: 0px ; margin-left: 8px&quot;&gt;field4 = value4&lt;br&gt;&lt;/p&gt;&lt;p style=&quot;margin: 0px ; margin-left: 8px&quot;&gt;field5 = value5&lt;br&gt;&lt;/p&gt;&lt;p style=&quot;margin: 0px ; margin-left: 8px&quot;&gt;field6 = value6&lt;br&gt;&lt;/p&gt;&lt;p style=&quot;margin: 0px ; margin-left: 8px&quot;&gt;field7 = value7&lt;br&gt;&lt;/p&gt;&lt;p style=&quot;margin: 0px ; margin-left: 8px&quot;&gt;field8 = value8&lt;br&gt;&lt;/p&gt;&lt;p style=&quot;margin: 0px ; margin-left: 8px&quot;&gt;field9 = value9&lt;br&gt;&lt;/p&gt;&lt;p style=&quot;margin: 0px ; margin-left: 8px&quot;&gt;field10 = value10&lt;/p&gt;" style="verticalAlign=top;align=left;overflow=fill;fontSize=12;fontFamily=Helvetica;html=1;rounded=0;shadow=0;comic=0;labelBackgroundColor=none;strokeWidth=1;movable=0;resizable=0;rotatable=0;deletable=0;editable=0;locked=1;connectable=0;" vertex="1" parent="1">
          <mxGeometry x="70" y="935" width="140" height="180" as="geometry" />
        </mxCell>
        <mxCell id="w01i-qKT7NMyt8FK4lqk-28" style="edgeStyle=orthogonalEdgeStyle;rounded=0;html=1;exitX=1;exitY=0.25;entryX=0;entryY=0.75;labelBackgroundColor=none;endArrow=none;endFill=0;endSize=8;fontFamily=Verdana;fontSize=12;align=left;movable=0;resizable=0;rotatable=0;deletable=0;editable=0;locked=1;connectable=0;" edge="1" parent="1" source="w01i-qKT7NMyt8FK4lqk-29" target="w01i-qKT7NMyt8FK4lqk-32">
          <mxGeometry relative="1" as="geometry">
            <Array as="points">
              <mxPoint x="240" y="1213" />
              <mxPoint x="240" y="1070" />
            </Array>
          </mxGeometry>
        </mxCell>
        <mxCell id="w01i-qKT7NMyt8FK4lqk-29" value="&lt;p style=&quot;margin: 0px ; margin-top: 4px ; text-align: center ; text-decoration: underline&quot;&gt;&lt;b&gt;Object:Type&lt;/b&gt;&lt;/p&gt;&lt;hr&gt;&lt;p style=&quot;margin: 0px ; margin-left: 8px&quot;&gt;field1 = value1&lt;br&gt;field2 = value2&lt;br&gt;field3 = value3&lt;/p&gt;&lt;p style=&quot;margin: 0px ; margin-left: 8px&quot;&gt;field4 = value4&lt;br&gt;&lt;/p&gt;&lt;p style=&quot;margin: 0px ; margin-left: 8px&quot;&gt;field5 = value5&lt;br&gt;&lt;/p&gt;&lt;p style=&quot;margin: 0px ; margin-left: 8px&quot;&gt;field6 = value6&lt;br&gt;&lt;/p&gt;&lt;p style=&quot;margin: 0px ; margin-left: 8px&quot;&gt;field7 = value7&lt;br&gt;&lt;/p&gt;&lt;p style=&quot;margin: 0px ; margin-left: 8px&quot;&gt;field8 = value8&lt;/p&gt;" style="verticalAlign=top;align=left;overflow=fill;fontSize=12;fontFamily=Helvetica;html=1;rounded=0;shadow=0;comic=0;labelBackgroundColor=none;strokeWidth=1;movable=0;resizable=0;rotatable=0;deletable=0;editable=0;locked=1;connectable=0;" vertex="1" parent="1">
          <mxGeometry x="70" y="1175" width="140" height="150" as="geometry" />
        </mxCell>
        <mxCell id="w01i-qKT7NMyt8FK4lqk-30" style="edgeStyle=orthogonalEdgeStyle;rounded=0;html=1;exitX=0;exitY=0.25;entryX=1;entryY=0.25;labelBackgroundColor=none;endArrow=none;endFill=0;endSize=8;fontFamily=Verdana;fontSize=12;align=left;movable=0;resizable=0;rotatable=0;deletable=0;editable=0;locked=1;connectable=0;" edge="1" parent="1" source="w01i-qKT7NMyt8FK4lqk-32" target="w01i-qKT7NMyt8FK4lqk-27">
          <mxGeometry relative="1" as="geometry" />
        </mxCell>
        <mxCell id="w01i-qKT7NMyt8FK4lqk-31" style="edgeStyle=orthogonalEdgeStyle;rounded=0;html=1;exitX=1;exitY=0.25;entryX=0;entryY=0.25;labelBackgroundColor=none;endArrow=none;endFill=0;endSize=8;fontFamily=Verdana;fontSize=12;align=left;movable=0;resizable=0;rotatable=0;deletable=0;editable=0;locked=1;connectable=0;" edge="1" parent="1" source="w01i-qKT7NMyt8FK4lqk-32" target="w01i-qKT7NMyt8FK4lqk-37">
          <mxGeometry relative="1" as="geometry" />
        </mxCell>
        <mxCell id="w01i-qKT7NMyt8FK4lqk-32" value="&lt;p style=&quot;margin: 0px ; margin-top: 4px ; text-align: center ; text-decoration: underline&quot;&gt;&lt;b&gt;Object:Type&lt;/b&gt;&lt;/p&gt;&lt;hr&gt;&lt;p style=&quot;margin: 0px ; margin-left: 8px&quot;&gt;field1 = value1&lt;br&gt;field2 = value2&lt;br&gt;field3 = value3&lt;/p&gt;&lt;p style=&quot;margin: 0px ; margin-left: 8px&quot;&gt;field4 = value4&lt;br&gt;&lt;/p&gt;&lt;p style=&quot;margin: 0px ; margin-left: 8px&quot;&gt;field5 = value5&lt;br&gt;&lt;/p&gt;&lt;p style=&quot;margin: 0px ; margin-left: 8px&quot;&gt;field6 = value6&lt;br&gt;&lt;/p&gt;&lt;p style=&quot;margin: 0px ; margin-left: 8px&quot;&gt;field7 = value7&lt;br&gt;&lt;/p&gt;&lt;p style=&quot;margin: 0px ; margin-left: 8px&quot;&gt;field8 = value8&lt;br&gt;&lt;/p&gt;&lt;p style=&quot;margin: 0px ; margin-left: 8px&quot;&gt;field9 = value9&lt;br&gt;&lt;/p&gt;&lt;p style=&quot;margin: 0px ; margin-left: 8px&quot;&gt;field10 = value10&lt;/p&gt;" style="verticalAlign=top;align=left;overflow=fill;fontSize=12;fontFamily=Helvetica;html=1;rounded=0;shadow=0;comic=0;labelBackgroundColor=none;strokeWidth=1;movable=0;resizable=0;rotatable=0;deletable=0;editable=0;locked=1;connectable=0;" vertex="1" parent="1">
          <mxGeometry x="250" y="935" width="140" height="180" as="geometry" />
        </mxCell>
        <mxCell id="w01i-qKT7NMyt8FK4lqk-33" style="edgeStyle=orthogonalEdgeStyle;rounded=0;html=1;exitX=0;exitY=0.75;entryX=1;entryY=0.75;labelBackgroundColor=none;endArrow=none;endFill=0;endSize=8;fontFamily=Verdana;fontSize=12;align=left;movable=0;resizable=0;rotatable=0;deletable=0;editable=0;locked=1;connectable=0;" edge="1" parent="1" source="w01i-qKT7NMyt8FK4lqk-35" target="w01i-qKT7NMyt8FK4lqk-29">
          <mxGeometry relative="1" as="geometry" />
        </mxCell>
        <mxCell id="w01i-qKT7NMyt8FK4lqk-34" style="edgeStyle=orthogonalEdgeStyle;rounded=0;html=1;exitX=0;exitY=0.5;entryX=1;entryY=0.5;labelBackgroundColor=none;endArrow=none;endFill=0;endSize=8;fontFamily=Verdana;fontSize=12;align=left;movable=0;resizable=0;rotatable=0;deletable=0;editable=0;locked=1;connectable=0;" edge="1" parent="1" source="w01i-qKT7NMyt8FK4lqk-35" target="w01i-qKT7NMyt8FK4lqk-29">
          <mxGeometry relative="1" as="geometry" />
        </mxCell>
        <mxCell id="w01i-qKT7NMyt8FK4lqk-35" value="&lt;p style=&quot;margin: 0px ; margin-top: 4px ; text-align: center ; text-decoration: underline&quot;&gt;&lt;b&gt;Object:Type&lt;/b&gt;&lt;/p&gt;&lt;hr&gt;&lt;p style=&quot;margin: 0px ; margin-left: 8px&quot;&gt;field1 = value1&lt;br&gt;field2 = value2&lt;br&gt;field3 = value3&lt;/p&gt;&lt;p style=&quot;margin: 0px ; margin-left: 8px&quot;&gt;field4 = value4&lt;br&gt;&lt;/p&gt;&lt;p style=&quot;margin: 0px ; margin-left: 8px&quot;&gt;field5 = value5&lt;br&gt;&lt;/p&gt;&lt;p style=&quot;margin: 0px ; margin-left: 8px&quot;&gt;field6 = value6&lt;br&gt;&lt;/p&gt;&lt;p style=&quot;margin: 0px ; margin-left: 8px&quot;&gt;field7 = value7&lt;br&gt;&lt;/p&gt;&lt;p style=&quot;margin: 0px ; margin-left: 8px&quot;&gt;field8 = value8&lt;br&gt;&lt;/p&gt;&lt;p style=&quot;margin: 0px ; margin-left: 8px&quot;&gt;field9 = value9&lt;br&gt;&lt;/p&gt;&lt;p style=&quot;margin: 0px ; margin-left: 8px&quot;&gt;field10 = value10&lt;br&gt;&lt;/p&gt;&lt;p style=&quot;margin: 0px ; margin-left: 8px&quot;&gt;field11 = value11&lt;br&gt;&lt;/p&gt;&lt;p style=&quot;margin: 0px ; margin-left: 8px&quot;&gt;field12 = value12&lt;/p&gt;" style="verticalAlign=top;align=left;overflow=fill;fontSize=12;fontFamily=Helvetica;html=1;rounded=0;shadow=0;comic=0;labelBackgroundColor=none;strokeWidth=1;movable=0;resizable=0;rotatable=0;deletable=0;editable=0;locked=1;connectable=0;" vertex="1" parent="1">
          <mxGeometry x="250" y="1175" width="140" height="200" as="geometry" />
        </mxCell>
        <mxCell id="w01i-qKT7NMyt8FK4lqk-36" style="edgeStyle=orthogonalEdgeStyle;rounded=0;html=1;exitX=0;exitY=0.75;entryX=1;entryY=0.5;labelBackgroundColor=none;endArrow=none;endFill=0;endSize=8;fontFamily=Verdana;fontSize=12;align=left;movable=0;resizable=0;rotatable=0;deletable=0;editable=0;locked=1;connectable=0;" edge="1" parent="1" source="w01i-qKT7NMyt8FK4lqk-37" target="w01i-qKT7NMyt8FK4lqk-32">
          <mxGeometry relative="1" as="geometry">
            <Array as="points">
              <mxPoint x="430" y="968" />
              <mxPoint x="430" y="1025" />
            </Array>
          </mxGeometry>
        </mxCell>
        <mxCell id="w01i-qKT7NMyt8FK4lqk-37" value="&lt;p style=&quot;margin: 0px ; margin-top: 4px ; text-align: center ; text-decoration: underline&quot;&gt;&lt;b&gt;Object:Type&lt;/b&gt;&lt;/p&gt;&lt;hr&gt;&lt;p style=&quot;margin: 0px ; margin-left: 8px&quot;&gt;field1 = value1&lt;br&gt;field2 = value2&lt;br&gt;field3 = value3&lt;/p&gt;&lt;p style=&quot;margin: 0px ; margin-left: 8px&quot;&gt;field4 = value4&lt;br&gt;&lt;/p&gt;&lt;p style=&quot;margin: 0px ; margin-left: 8px&quot;&gt;field5 = value5&lt;br&gt;&lt;/p&gt;&lt;p style=&quot;margin: 0px ; margin-left: 8px&quot;&gt;field6 = value6&lt;br&gt;&lt;/p&gt;&lt;p style=&quot;margin: 0px ; margin-left: 8px&quot;&gt;field7 = value7&lt;br&gt;&lt;/p&gt;&lt;p style=&quot;margin: 0px ; margin-left: 8px&quot;&gt;field8 = value8&lt;/p&gt;" style="verticalAlign=top;align=left;overflow=fill;fontSize=12;fontFamily=Helvetica;html=1;rounded=0;shadow=0;comic=0;labelBackgroundColor=none;strokeWidth=1;movable=0;resizable=0;rotatable=0;deletable=0;editable=0;locked=1;connectable=0;" vertex="1" parent="1">
          <mxGeometry x="440" y="855" width="140" height="150" as="geometry" />
        </mxCell>
        <mxCell id="w01i-qKT7NMyt8FK4lqk-38" style="edgeStyle=orthogonalEdgeStyle;rounded=0;html=1;labelBackgroundColor=none;endArrow=none;endFill=0;endSize=8;fontFamily=Verdana;fontSize=12;align=left;exitX=1;exitY=0.5;movable=0;resizable=0;rotatable=0;deletable=0;editable=0;locked=1;connectable=0;" edge="1" parent="1" source="w01i-qKT7NMyt8FK4lqk-39" target="w01i-qKT7NMyt8FK4lqk-53">
          <mxGeometry relative="1" as="geometry">
            <Array as="points">
              <mxPoint x="604" y="1080" />
              <mxPoint x="604" y="1206" />
            </Array>
          </mxGeometry>
        </mxCell>
        <mxCell id="w01i-qKT7NMyt8FK4lqk-39" value="&lt;p style=&quot;margin: 0px ; margin-top: 4px ; text-align: center ; text-decoration: underline&quot;&gt;&lt;b&gt;Object:Type&lt;/b&gt;&lt;/p&gt;&lt;hr&gt;&lt;p style=&quot;margin: 0px ; margin-left: 8px&quot;&gt;field1 = value1&lt;br&gt;field2 = value2&lt;br&gt;field3 = value3&lt;/p&gt;&lt;p style=&quot;margin: 0px ; margin-left: 8px&quot;&gt;field4 = value4&lt;/p&gt;" style="verticalAlign=top;align=left;overflow=fill;fontSize=12;fontFamily=Helvetica;html=1;rounded=0;shadow=0;comic=0;labelBackgroundColor=none;strokeWidth=1;movable=0;resizable=0;rotatable=0;deletable=0;editable=0;locked=1;connectable=0;" vertex="1" parent="1">
          <mxGeometry x="440" y="1035" width="140" height="90" as="geometry" />
        </mxCell>
        <mxCell id="w01i-qKT7NMyt8FK4lqk-40" style="edgeStyle=orthogonalEdgeStyle;rounded=0;html=1;exitX=1;exitY=0.5;entryX=0;entryY=0.75;labelBackgroundColor=none;endArrow=none;endFill=0;endSize=8;fontFamily=Verdana;fontSize=12;align=left;movable=0;resizable=0;rotatable=0;deletable=0;editable=0;locked=1;connectable=0;" edge="1" parent="1" source="w01i-qKT7NMyt8FK4lqk-43" target="w01i-qKT7NMyt8FK4lqk-53">
          <mxGeometry relative="1" as="geometry">
            <Array as="points">
              <mxPoint x="605" y="1285" />
              <mxPoint x="605" y="1255" />
            </Array>
          </mxGeometry>
        </mxCell>
        <mxCell id="w01i-qKT7NMyt8FK4lqk-41" style="edgeStyle=orthogonalEdgeStyle;rounded=0;html=1;exitX=1;exitY=0.25;entryX=1;entryY=0.75;labelBackgroundColor=none;endArrow=none;endFill=0;endSize=8;fontFamily=Verdana;fontSize=12;align=left;movable=0;resizable=0;rotatable=0;deletable=0;editable=0;locked=1;connectable=0;" edge="1" parent="1" source="w01i-qKT7NMyt8FK4lqk-43" target="w01i-qKT7NMyt8FK4lqk-39">
          <mxGeometry relative="1" as="geometry" />
        </mxCell>
        <mxCell id="w01i-qKT7NMyt8FK4lqk-42" style="edgeStyle=orthogonalEdgeStyle;rounded=0;html=1;exitX=0;exitY=0.25;entryX=1;entryY=0.75;labelBackgroundColor=none;endArrow=none;endFill=0;endSize=8;fontFamily=Verdana;fontSize=12;align=left;movable=0;resizable=0;rotatable=0;deletable=0;editable=0;locked=1;connectable=0;" edge="1" parent="1" source="w01i-qKT7NMyt8FK4lqk-43" target="w01i-qKT7NMyt8FK4lqk-32">
          <mxGeometry relative="1" as="geometry" />
        </mxCell>
        <mxCell id="w01i-qKT7NMyt8FK4lqk-43" value="&lt;p style=&quot;margin: 0px ; margin-top: 4px ; text-align: center ; text-decoration: underline&quot;&gt;&lt;b&gt;Object:Type&lt;/b&gt;&lt;/p&gt;&lt;hr&gt;&lt;p style=&quot;margin: 0px ; margin-left: 8px&quot;&gt;field1 = value1&lt;br&gt;field2 = value2&lt;br&gt;field3 = value3&lt;/p&gt;&lt;p style=&quot;margin: 0px ; margin-left: 8px&quot;&gt;field4 = value4&lt;br&gt;&lt;/p&gt;&lt;p style=&quot;margin: 0px ; margin-left: 8px&quot;&gt;field5 = value5&lt;br&gt;&lt;/p&gt;&lt;p style=&quot;margin: 0px ; margin-left: 8px&quot;&gt;field6 = value6&lt;br&gt;&lt;/p&gt;&lt;p style=&quot;margin: 0px ; margin-left: 8px&quot;&gt;field7 = value7&lt;br&gt;&lt;/p&gt;&lt;p style=&quot;margin: 0px ; margin-left: 8px&quot;&gt;field8 = value8&lt;br&gt;&lt;/p&gt;&lt;p style=&quot;margin: 0px ; margin-left: 8px&quot;&gt;field9 = value9&lt;br&gt;&lt;/p&gt;&lt;p style=&quot;margin: 0px ; margin-left: 8px&quot;&gt;field10 = value10&lt;/p&gt;" style="verticalAlign=top;align=left;overflow=fill;fontSize=12;fontFamily=Helvetica;html=1;rounded=0;shadow=0;comic=0;labelBackgroundColor=none;strokeWidth=1;movable=0;resizable=0;rotatable=0;deletable=0;editable=0;locked=1;connectable=0;" vertex="1" parent="1">
          <mxGeometry x="440" y="1195" width="140" height="180" as="geometry" />
        </mxCell>
        <mxCell id="w01i-qKT7NMyt8FK4lqk-44" style="edgeStyle=orthogonalEdgeStyle;rounded=0;html=1;exitX=0;exitY=0.25;entryX=1;entryY=0.75;labelBackgroundColor=none;endArrow=none;endFill=0;endSize=8;fontFamily=Verdana;fontSize=12;align=left;movable=0;resizable=0;rotatable=0;deletable=0;editable=0;locked=1;connectable=0;" edge="1" parent="1" source="w01i-qKT7NMyt8FK4lqk-47" target="w01i-qKT7NMyt8FK4lqk-35">
          <mxGeometry relative="1" as="geometry" />
        </mxCell>
        <mxCell id="w01i-qKT7NMyt8FK4lqk-45" style="edgeStyle=orthogonalEdgeStyle;rounded=0;html=1;exitX=0;exitY=0.75;entryX=1.006;entryY=0.853;entryPerimeter=0;labelBackgroundColor=none;endArrow=none;endFill=0;endSize=8;fontFamily=Verdana;fontSize=12;align=left;movable=0;resizable=0;rotatable=0;deletable=0;editable=0;locked=1;connectable=0;" edge="1" parent="1" source="w01i-qKT7NMyt8FK4lqk-47" target="w01i-qKT7NMyt8FK4lqk-35">
          <mxGeometry relative="1" as="geometry">
            <Array as="points">
              <mxPoint x="400" y="1543" />
              <mxPoint x="400" y="1345" />
            </Array>
          </mxGeometry>
        </mxCell>
        <mxCell id="w01i-qKT7NMyt8FK4lqk-46" style="edgeStyle=orthogonalEdgeStyle;rounded=0;html=1;exitX=0;exitY=0.5;entryX=1;entryY=0.5;labelBackgroundColor=none;endArrow=none;endFill=0;endSize=8;fontFamily=Verdana;fontSize=12;align=left;movable=0;resizable=0;rotatable=0;deletable=0;editable=0;locked=1;connectable=0;" edge="1" parent="1" source="w01i-qKT7NMyt8FK4lqk-47" target="w01i-qKT7NMyt8FK4lqk-35">
          <mxGeometry relative="1" as="geometry">
            <Array as="points">
              <mxPoint x="430" y="1505" />
              <mxPoint x="430" y="1275" />
            </Array>
          </mxGeometry>
        </mxCell>
        <mxCell id="w01i-qKT7NMyt8FK4lqk-47" value="&lt;p style=&quot;margin: 0px ; margin-top: 4px ; text-align: center ; text-decoration: underline&quot;&gt;&lt;b&gt;Object:Type&lt;/b&gt;&lt;/p&gt;&lt;hr&gt;&lt;p style=&quot;margin: 0px ; margin-left: 8px&quot;&gt;field1 = value1&lt;br&gt;field2 = value2&lt;br&gt;field3 = value3&lt;/p&gt;&lt;p style=&quot;margin: 0px ; margin-left: 8px&quot;&gt;field4 = value4&lt;br&gt;&lt;/p&gt;&lt;p style=&quot;margin: 0px ; margin-left: 8px&quot;&gt;field5 = value5&lt;br&gt;&lt;/p&gt;&lt;p style=&quot;margin: 0px ; margin-left: 8px&quot;&gt;field6 = value6&lt;br&gt;&lt;/p&gt;&lt;p style=&quot;margin: 0px ; margin-left: 8px&quot;&gt;field7 = value7&lt;br&gt;&lt;/p&gt;&lt;p style=&quot;margin: 0px ; margin-left: 8px&quot;&gt;field8 = value8&lt;/p&gt;" style="verticalAlign=top;align=left;overflow=fill;fontSize=12;fontFamily=Helvetica;html=1;rounded=0;shadow=0;comic=0;labelBackgroundColor=none;strokeWidth=1;movable=0;resizable=0;rotatable=0;deletable=0;editable=0;locked=1;connectable=0;" vertex="1" parent="1">
          <mxGeometry x="440" y="1420" width="140" height="150" as="geometry" />
        </mxCell>
        <mxCell id="w01i-qKT7NMyt8FK4lqk-48" style="edgeStyle=orthogonalEdgeStyle;rounded=0;html=1;labelBackgroundColor=none;endArrow=none;endFill=0;endSize=8;fontFamily=Verdana;fontSize=12;align=left;entryX=1;entryY=0.25;movable=0;resizable=0;rotatable=0;deletable=0;editable=0;locked=1;connectable=0;" edge="1" parent="1" source="w01i-qKT7NMyt8FK4lqk-49" target="w01i-qKT7NMyt8FK4lqk-39">
          <mxGeometry relative="1" as="geometry">
            <Array as="points">
              <mxPoint x="604" y="966" />
              <mxPoint x="604" y="1057" />
            </Array>
          </mxGeometry>
        </mxCell>
        <mxCell id="w01i-qKT7NMyt8FK4lqk-49" value="&lt;p style=&quot;margin: 0px ; margin-top: 4px ; text-align: center ; text-decoration: underline&quot;&gt;&lt;b&gt;Object:Type&lt;/b&gt;&lt;/p&gt;&lt;hr&gt;&lt;p style=&quot;margin: 0px ; margin-left: 8px&quot;&gt;field1 = value1&lt;br&gt;field2 = value2&lt;br&gt;field3 = value3&lt;/p&gt;&lt;p style=&quot;margin: 0px ; margin-left: 8px&quot;&gt;field4 = value4&lt;br&gt;&lt;/p&gt;&lt;p style=&quot;margin: 0px ; margin-left: 8px&quot;&gt;field5 = value5&lt;br&gt;&lt;/p&gt;&lt;p style=&quot;margin: 0px ; margin-left: 8px&quot;&gt;field6 = value6&lt;br&gt;&lt;/p&gt;&lt;p style=&quot;margin: 0px ; margin-left: 8px&quot;&gt;field7 = value7&lt;br&gt;&lt;/p&gt;&lt;p style=&quot;margin: 0px ; margin-left: 8px&quot;&gt;field8 = value8&lt;br&gt;&lt;/p&gt;&lt;p style=&quot;margin: 0px ; margin-left: 8px&quot;&gt;field9 = value9&lt;br&gt;&lt;/p&gt;&lt;p style=&quot;margin: 0px ; margin-left: 8px&quot;&gt;field10 = value10&lt;br&gt;&lt;/p&gt;&lt;p style=&quot;margin: 0px ; margin-left: 8px&quot;&gt;field11 = value11&lt;br&gt;&lt;/p&gt;&lt;p style=&quot;margin: 0px ; margin-left: 8px&quot;&gt;field12 = value12&lt;/p&gt;" style="verticalAlign=top;align=left;overflow=fill;fontSize=12;fontFamily=Helvetica;html=1;rounded=0;shadow=0;comic=0;labelBackgroundColor=none;strokeWidth=1;movable=0;resizable=0;rotatable=0;deletable=0;editable=0;locked=1;connectable=0;" vertex="1" parent="1">
          <mxGeometry x="630" y="865" width="140" height="200" as="geometry" />
        </mxCell>
        <mxCell id="w01i-qKT7NMyt8FK4lqk-50" style="edgeStyle=orthogonalEdgeStyle;rounded=0;html=1;exitX=1;exitY=0.25;entryX=0;entryY=0.75;labelBackgroundColor=none;endArrow=none;endFill=0;endSize=8;fontFamily=Verdana;fontSize=12;align=left;movable=0;resizable=0;rotatable=0;deletable=0;editable=0;locked=1;connectable=0;" edge="1" parent="1" source="w01i-qKT7NMyt8FK4lqk-53" target="w01i-qKT7NMyt8FK4lqk-57">
          <mxGeometry relative="1" as="geometry" />
        </mxCell>
        <mxCell id="w01i-qKT7NMyt8FK4lqk-51" style="edgeStyle=orthogonalEdgeStyle;rounded=0;html=1;exitX=1;exitY=0.5;entryX=0;entryY=0.75;labelBackgroundColor=none;endArrow=none;endFill=0;endSize=8;fontFamily=Verdana;fontSize=12;align=left;movable=0;resizable=0;rotatable=0;deletable=0;editable=0;locked=1;connectable=0;" edge="1" parent="1" source="w01i-qKT7NMyt8FK4lqk-53" target="w01i-qKT7NMyt8FK4lqk-58">
          <mxGeometry relative="1" as="geometry" />
        </mxCell>
        <mxCell id="w01i-qKT7NMyt8FK4lqk-52" style="edgeStyle=orthogonalEdgeStyle;rounded=0;html=1;exitX=1;exitY=0.75;entryX=0;entryY=0.5;labelBackgroundColor=none;endArrow=none;endFill=0;endSize=8;fontFamily=Verdana;fontSize=12;align=left;movable=0;resizable=0;rotatable=0;deletable=0;editable=0;locked=1;connectable=0;" edge="1" parent="1" source="w01i-qKT7NMyt8FK4lqk-53" target="w01i-qKT7NMyt8FK4lqk-59">
          <mxGeometry relative="1" as="geometry" />
        </mxCell>
        <mxCell id="w01i-qKT7NMyt8FK4lqk-53" value="&lt;p style=&quot;margin: 0px ; margin-top: 4px ; text-align: center ; text-decoration: underline&quot;&gt;&lt;b&gt;Object:Type&lt;/b&gt;&lt;/p&gt;&lt;hr&gt;&lt;p style=&quot;margin: 0px ; margin-left: 8px&quot;&gt;field1 = value1&lt;br&gt;field2 = value2&lt;br&gt;field3 = value3&lt;/p&gt;&lt;p style=&quot;margin: 0px ; margin-left: 8px&quot;&gt;field4 = value4&lt;br&gt;&lt;/p&gt;&lt;p style=&quot;margin: 0px ; margin-left: 8px&quot;&gt;field5 = value5&lt;br&gt;&lt;/p&gt;&lt;p style=&quot;margin: 0px ; margin-left: 8px&quot;&gt;field6 = value6&lt;br&gt;&lt;/p&gt;&lt;p style=&quot;margin: 0px ; margin-left: 8px&quot;&gt;field7 = value7&lt;br&gt;&lt;/p&gt;&lt;p style=&quot;margin: 0px ; margin-left: 8px&quot;&gt;field8 = value8&lt;br&gt;&lt;/p&gt;&lt;p style=&quot;margin: 0px ; margin-left: 8px&quot;&gt;field9 = value9&lt;br&gt;&lt;/p&gt;&lt;p style=&quot;margin: 0px ; margin-left: 8px&quot;&gt;field10 = value10&lt;/p&gt;" style="verticalAlign=top;align=left;overflow=fill;fontSize=12;fontFamily=Helvetica;html=1;rounded=0;shadow=0;comic=0;labelBackgroundColor=none;strokeWidth=1;movable=0;resizable=0;rotatable=0;deletable=0;editable=0;locked=1;connectable=0;" vertex="1" parent="1">
          <mxGeometry x="630" y="1105" width="140" height="200" as="geometry" />
        </mxCell>
        <mxCell id="w01i-qKT7NMyt8FK4lqk-54" style="edgeStyle=orthogonalEdgeStyle;rounded=0;html=1;exitX=0;exitY=0.25;entryX=1;entryY=0.75;labelBackgroundColor=none;endArrow=none;endFill=0;endSize=8;fontFamily=Verdana;fontSize=12;align=left;movable=0;resizable=0;rotatable=0;deletable=0;editable=0;locked=1;connectable=0;" edge="1" parent="1" source="w01i-qKT7NMyt8FK4lqk-55" target="w01i-qKT7NMyt8FK4lqk-43">
          <mxGeometry relative="1" as="geometry" />
        </mxCell>
        <mxCell id="w01i-qKT7NMyt8FK4lqk-55" value="&lt;p style=&quot;margin: 0px ; margin-top: 4px ; text-align: center ; text-decoration: underline&quot;&gt;&lt;b&gt;Object:Type&lt;/b&gt;&lt;/p&gt;&lt;hr&gt;&lt;p style=&quot;margin: 0px ; margin-left: 8px&quot;&gt;field1 = value1&lt;br&gt;field2 = value2&lt;br&gt;field3 = value3&lt;/p&gt;&lt;p style=&quot;margin: 0px ; margin-left: 8px&quot;&gt;field4 = value4&lt;br&gt;&lt;/p&gt;&lt;p style=&quot;margin: 0px ; margin-left: 8px&quot;&gt;field5 = value5&lt;br&gt;&lt;/p&gt;&lt;p style=&quot;margin: 0px ; margin-left: 8px&quot;&gt;field6 = value6&lt;br&gt;&lt;/p&gt;&lt;p style=&quot;margin: 0px ; margin-left: 8px&quot;&gt;field7 = value7&lt;br&gt;&lt;/p&gt;&lt;p style=&quot;margin: 0px ; margin-left: 8px&quot;&gt;field8 = value8&lt;/p&gt;" style="verticalAlign=top;align=left;overflow=fill;fontSize=12;fontFamily=Helvetica;html=1;rounded=0;shadow=0;comic=0;labelBackgroundColor=none;strokeWidth=1;movable=0;resizable=0;rotatable=0;deletable=0;editable=0;locked=1;connectable=0;" vertex="1" parent="1">
          <mxGeometry x="630" y="1395" width="140" height="135" as="geometry" />
        </mxCell>
        <mxCell id="w01i-qKT7NMyt8FK4lqk-56" style="edgeStyle=orthogonalEdgeStyle;rounded=0;html=1;exitX=1;exitY=0.75;entryX=0;entryY=0.25;labelBackgroundColor=none;endArrow=none;endFill=0;endSize=8;fontFamily=Verdana;fontSize=12;align=left;movable=0;resizable=0;rotatable=0;deletable=0;editable=0;locked=1;connectable=0;" edge="1" parent="1" source="w01i-qKT7NMyt8FK4lqk-57" target="w01i-qKT7NMyt8FK4lqk-60">
          <mxGeometry relative="1" as="geometry" />
        </mxCell>
        <mxCell id="w01i-qKT7NMyt8FK4lqk-57" value="&lt;p style=&quot;margin: 0px ; margin-top: 4px ; text-align: center ; text-decoration: underline&quot;&gt;&lt;b&gt;Object:Type&lt;/b&gt;&lt;/p&gt;&lt;hr&gt;&lt;p style=&quot;margin: 0px ; margin-left: 8px&quot;&gt;field1 = value1&lt;br&gt;field2 = value2&lt;br&gt;field3 = value3&lt;/p&gt;&lt;p style=&quot;margin: 0px ; margin-left: 8px&quot;&gt;field4 = value4&lt;br&gt;&lt;/p&gt;&lt;p style=&quot;margin: 0px ; margin-left: 8px&quot;&gt;field5 = value5&lt;/p&gt;" style="verticalAlign=top;align=left;overflow=fill;fontSize=12;fontFamily=Helvetica;html=1;rounded=0;shadow=0;comic=0;labelBackgroundColor=none;strokeWidth=1;movable=0;resizable=0;rotatable=0;deletable=0;editable=0;locked=1;connectable=0;" vertex="1" parent="1">
          <mxGeometry x="800" y="930" width="140" height="110" as="geometry" />
        </mxCell>
        <mxCell id="w01i-qKT7NMyt8FK4lqk-58" value="&lt;p style=&quot;margin: 0px ; margin-top: 4px ; text-align: center ; text-decoration: underline&quot;&gt;&lt;b&gt;Object:Type&lt;/b&gt;&lt;/p&gt;&lt;hr&gt;&lt;p style=&quot;margin: 0px ; margin-left: 8px&quot;&gt;field1 = value1&lt;br&gt;field2 = value2&lt;br&gt;field3 = value3&lt;/p&gt;&lt;p style=&quot;margin: 0px ; margin-left: 8px&quot;&gt;field4 = value4&lt;/p&gt;" style="verticalAlign=top;align=left;overflow=fill;fontSize=12;fontFamily=Helvetica;html=1;rounded=0;shadow=0;comic=0;labelBackgroundColor=none;strokeWidth=1;movable=0;resizable=0;rotatable=0;deletable=0;editable=0;locked=1;connectable=0;" vertex="1" parent="1">
          <mxGeometry x="800" y="1105" width="140" height="90" as="geometry" />
        </mxCell>
        <mxCell id="w01i-qKT7NMyt8FK4lqk-59" value="&lt;p style=&quot;margin: 0px ; margin-top: 4px ; text-align: center ; text-decoration: underline&quot;&gt;&lt;b&gt;Object:Type&lt;/b&gt;&lt;/p&gt;&lt;hr&gt;&lt;p style=&quot;margin: 0px ; margin-left: 8px&quot;&gt;field1 = value1&lt;br&gt;field2 = value2&lt;br&gt;field3 = value3&lt;/p&gt;&lt;p style=&quot;margin: 0px ; margin-left: 8px&quot;&gt;field4 = value4&lt;br&gt;&lt;/p&gt;&lt;p style=&quot;margin: 0px ; margin-left: 8px&quot;&gt;field5 = value5&lt;/p&gt;" style="verticalAlign=top;align=left;overflow=fill;fontSize=12;fontFamily=Helvetica;html=1;rounded=0;shadow=0;comic=0;labelBackgroundColor=none;strokeWidth=1;movable=0;resizable=0;rotatable=0;deletable=0;editable=0;locked=1;connectable=0;" vertex="1" parent="1">
          <mxGeometry x="800" y="1265" width="140" height="110" as="geometry" />
        </mxCell>
        <mxCell id="w01i-qKT7NMyt8FK4lqk-60" value="&lt;p style=&quot;margin: 0px ; margin-top: 4px ; text-align: center ; text-decoration: underline&quot;&gt;&lt;b&gt;Object:Type&lt;/b&gt;&lt;/p&gt;&lt;hr&gt;&lt;p style=&quot;margin: 0px ; margin-left: 8px&quot;&gt;field1 = value1&lt;br&gt;field2 = value2&lt;br&gt;field3 = value3&lt;/p&gt;&lt;p style=&quot;margin: 0px ; margin-left: 8px&quot;&gt;field4 = value4&lt;br&gt;&lt;/p&gt;&lt;p style=&quot;margin: 0px ; margin-left: 8px&quot;&gt;field5 = value5&lt;br&gt;&lt;/p&gt;&lt;p style=&quot;margin: 0px ; margin-left: 8px&quot;&gt;field6 = value6&lt;br&gt;&lt;/p&gt;&lt;p style=&quot;margin: 0px ; margin-left: 8px&quot;&gt;field7 = value7&lt;br&gt;&lt;/p&gt;&lt;p style=&quot;margin: 0px ; margin-left: 8px&quot;&gt;field8 = value8&lt;br&gt;&lt;/p&gt;&lt;p style=&quot;margin: 0px ; margin-left: 8px&quot;&gt;field9 = value9&lt;br&gt;&lt;/p&gt;&lt;p style=&quot;margin: 0px ; margin-left: 8px&quot;&gt;field10 = value10&lt;br&gt;&lt;/p&gt;&lt;p style=&quot;margin: 0px ; margin-left: 8px&quot;&gt;field11 = value11&lt;br&gt;&lt;/p&gt;&lt;p style=&quot;margin: 0px ; margin-left: 8px&quot;&gt;field12 = value12&lt;/p&gt;" style="verticalAlign=top;align=left;overflow=fill;fontSize=12;fontFamily=Helvetica;html=1;rounded=0;shadow=0;comic=0;labelBackgroundColor=none;strokeWidth=1;movable=0;resizable=0;rotatable=0;deletable=0;editable=0;locked=1;connectable=0;" vertex="1" parent="1">
          <mxGeometry x="970" y="1015" width="140" height="200" as="geometry" />
        </mxCell>
      </root>
    </mxGraphModel>
  </diagram>
</mxfile>
